<svg width="501" height="105" viewBox="0 0 501 105" fill="none" xmlns="http://www.w3.org/2000/svg">
<g style="mix-blend-mode:luminosity" opacity="0.2">
<path d="M1.60449 2C26.4633 2 26.4633 103.124 51.3221 103.124C76.1809 103.124 76.1809 2 101.04 2C125.898 2 125.898 103.124 150.699 103.124C175.559 103.124 175.559 2 200.358 2C225.218 2 225.218 103.124 250.017 103.124C274.877 103.124 274.877 2 299.734 2C324.594 2 324.594 103.124 349.453 103.124C374.31 103.124 374.31 2 399.17 2C424.029 2 424.029 103.124 448.889 103.124C473.746 103.124 473.746 2 498.605 2" stroke="#4F4F4F" stroke-width="3" stroke-miterlimit="10" stroke-linecap="round"/>
</g>
</svg>
