<svg width="501" height="58" viewBox="0 0 501 58" fill="none" xmlns="http://www.w3.org/2000/svg">
<g style="mix-blend-mode:luminosity">
<path d="M2 2C26.8738 2 26.8738 56 51.7476 56C76.6214 56 76.6214 2 101.495 2C126.369 2 126.369 56 151.184 56C176.059 56 176.059 2 200.874 2C225.748 2 225.748 56 250.563 56C275.437 56 275.437 2 300.31 2C325.184 2 325.184 56 350.058 56C374.931 56 374.931 2 399.805 2C424.679 2 424.679 56 449.554 56C474.426 56 474.426 2 499.301 2" stroke="#4F4F4F" stroke-width="3" stroke-miterlimit="10" stroke-linecap="round"/>
</g>
</svg>
