<svg width="200" height="113" viewBox="0 0 200 113" fill="none" xmlns="http://www.w3.org/2000/svg">
<g style="mix-blend-mode:luminosity" opacity="0.2">
<path d="M153.432 113C130.81 113 114.773 93.481 99.9373 72.133C84.978 93.612 68.9907 113 46.4434 113C21.1295 113 0.537109 87.654 0.537109 56.5C0.537109 25.346 21.1295 0 46.4434 0C69.0731 0 85.5986 19.919 99.9373 40.445C114.268 19.94 130.81 0 153.432 0C178.747 0 199.337 25.346 199.337 56.5C199.337 87.654 178.737 113 153.432 113ZM110.797 56.294C124.224 75.782 137.204 92.454 153.432 92.454C169.61 92.454 182.771 76.337 182.771 56.51C182.771 36.694 169.61 20.567 153.432 20.567C136.964 20.557 123.992 37.136 110.797 56.294ZM46.4434 20.557C30.266 20.557 17.1038 36.683 17.1038 56.5C17.1038 76.327 30.266 92.443 46.4434 92.443C62.7535 92.443 75.775 75.625 89.0776 56.274C75.8663 37.136 62.9022 20.557 46.4434 20.557Z" fill="#808080"/>
</g>
</svg>
