<svg width="71" height="70" viewBox="0 0 71 70" fill="none" xmlns="http://www.w3.org/2000/svg">
<g style="mix-blend-mode:luminosity" opacity="0.2">
<path d="M34.6732 0.829715C34.8038 -0.276572 36.3994 -0.276572 36.53 0.829715L37.6246 10.1105C39.038 22.0944 48.4298 31.5428 60.3417 32.9648L69.5668 34.066C70.6666 34.1974 70.6666 35.8027 69.5668 35.934L60.3417 37.0352C48.4298 38.4572 39.038 47.9056 37.6246 59.8894L36.53 69.1702C36.3994 70.2766 34.8038 70.2766 34.6732 69.1702L33.5786 59.8894C32.1652 47.9056 22.7734 38.4572 10.8613 37.0352L1.63626 35.934C0.536611 35.8027 0.536611 34.1974 1.63626 34.066L10.8613 32.9648C22.7734 31.5428 32.1652 22.0944 33.5786 10.1105L34.6732 0.829715Z" fill="#CDCDCD"/>
</g>
</svg>
