<svg width="255" height="262" viewBox="0 0 255 262" fill="none" xmlns="http://www.w3.org/2000/svg">
<g style="mix-blend-mode:luminosity" opacity="0.1">
<path d="M130.241 133.537C131.18 133.454 131.685 135.203 130.241 136.116C128.966 137.089 125.984 136.382 125.133 133.537C124.12 130.85 126.066 126.646 130.241 125.801C134.249 124.749 139.674 127.928 140.458 133.537C141.547 138.961 137.145 145.681 130.241 146.432C123.503 147.567 115.626 141.888 114.916 133.537C113.739 125.358 120.618 116.163 130.241 115.485C139.698 114.276 150.056 122.431 150.674 133.537C151.919 144.487 142.598 156.139 130.241 156.748C118.035 158.04 105.269 147.405 104.699 133.537C103.401 119.857 115.135 105.685 130.241 105.169C145.181 103.803 160.394 116.914 160.89 133.537C162.277 149.979 148.071 166.622 130.241 167.064C112.581 168.498 94.8915 152.916 94.483 133.537C93.0238 114.34 109.681 95.222 130.241 94.853C150.63 93.326 170.771 111.413 171.107 133.537C172.639 155.48 153.53 177.099 130.241 177.379C107.123 178.976 84.53 158.423 84.2666 133.537C82.6613 108.819 104.228 84.764 130.241 84.538C156.083 82.887 181.148 105.876 181.323 133.537C183.016 161.012 158.978 187.543 130.241 187.695C101.674 189.419 74.1525 163.954 74.0504 133.537C72.2844 103.312 98.7741 74.2906 130.241 74.2218C161.537 72.3994 191.51 100.389 191.539 133.537C193.378 166.518 164.437 198.021 130.241 198.011C96.2205 199.897 63.7757 169.461 63.834 133.537C61.9074 97.801 93.3249 63.8275 130.241 63.9061C167.01 61.9412 201.868 94.873 201.756 133.537C203.736 172.025 169.91 208.494 130.241 208.327C90.7376 210.375 53.4375 174.963 53.6176 133.537C51.5694 92.294 87.843 53.3496 130.241 53.5903C172.463 51.4633 212.244 89.371 211.972 133.537C214.108 177.551 175.363 218.952 130.241 218.642C85.2884 220.838 43.0557 180.474 43.4011 133.537C41.1924 86.778 82.3889 42.8767 130.241 43.2746C177.922 40.9904 222.607 83.855 222.188 133.537C224.471 183.073 180.822 229.41 130.241 228.958C79.8393 231.296 32.6788 186 33.1848 133.537C30.8106 81.241 76.9402 32.4381 130.241 32.9588C183.376 30.5469 232.979 78.3186 232.405 133.537C234.852 188.579 186.27 239.888 130.241 239.274C74.3764 241.769 22.3213 191.507 22.9683 133.537C20.4531 75.7397 71.4818 21.9603 130.241 22.6431C188.825 20.069 243.356 72.8169 242.621 133.537C245.229 194.091 191.719 250.351 130.241 249.59C68.9082 252.237 11.9637 197.014 12.7519 133.537C10.0956 70.2527 66.0086 11.4726 130.241 12.3273C194.308 9.59605 253.699 67.3103 252.837 133.537C255.567 199.593 197.202 260.829 130.241 259.905C63.4545 262.715 1.58683 202.52 2.5355 133.537C-0.281399 64.7264 60.555 1.01435 130.241 2.01155" stroke="white" stroke-width="3" stroke-linecap="round"/>
</g>
</svg>
