<svg width="49" height="48" viewBox="0 0 49 48" fill="none" xmlns="http://www.w3.org/2000/svg">
<g clip-path="url(#clip0_146_2379)">
<g filter="url(#filter0_bd_146_2379)">
<path d="M24.0517 0C10.7681 0 0 10.745 0 24C0 37.255 10.7681 48 24.0517 48C37.3352 48 48.1033 37.255 48.1033 24C48.1033 10.745 37.3352 0 24.0517 0ZM33.3015 27.0775C33.3015 27.0775 35.4286 29.1725 35.9522 30.145C35.9672 30.165 35.9748 30.185 35.9798 30.195C36.1927 30.5525 36.2428 30.83 36.1376 31.0375C35.9622 31.3825 35.3609 31.5525 35.1555 31.5675H31.3974C31.1369 31.5675 30.5907 31.5 29.9293 31.045C29.4207 30.69 28.9196 30.1075 28.4311 29.54C27.702 28.695 27.0706 27.965 26.4343 27.965C26.3534 27.9649 26.2731 27.9775 26.1963 28.0025C25.7152 28.1575 25.0989 28.8425 25.0989 30.6675C25.0989 31.2375 24.6479 31.565 24.3297 31.565H22.6086C22.0223 31.565 18.9682 31.36 16.2624 28.5125C12.9503 25.025 9.96891 18.03 9.94385 17.965C9.75595 17.5125 10.1443 17.27 10.5677 17.27H14.3633C14.8694 17.27 15.0348 17.5775 15.15 17.85C15.2853 18.1675 15.7814 19.43 16.5956 20.85C17.916 23.165 18.7252 24.105 19.3741 24.105C19.4958 24.1036 19.6153 24.0727 19.7224 24.015C20.5692 23.545 20.4113 20.5325 20.3738 19.9075C20.3738 19.79 20.3712 18.56 19.9378 17.97C19.6271 17.5425 19.0985 17.38 18.7778 17.32C18.9076 17.1413 19.0786 16.9964 19.2764 16.8975C19.8576 16.6075 20.9049 16.565 21.9446 16.565H22.5234C23.6508 16.58 23.9414 16.6525 24.3498 16.755C25.1766 16.9525 25.1941 17.485 25.1214 19.3075C25.0989 19.825 25.0764 20.41 25.0764 21.1C25.0764 21.25 25.0688 21.41 25.0688 21.58C25.0438 22.5075 25.0137 23.56 25.6701 23.9925C25.7557 24.0461 25.8547 24.0747 25.9557 24.075C26.1837 24.075 26.8702 24.075 28.7292 20.8925C29.3025 19.8681 29.8007 18.8037 30.2199 17.7075C30.2575 17.6425 30.3677 17.4425 30.498 17.365C30.5941 17.3161 30.7007 17.2912 30.8087 17.2925H35.2707C35.7568 17.2925 36.09 17.365 36.1526 17.5525C36.2629 17.85 36.1326 18.7575 34.0957 21.51L33.1863 22.7075C31.3398 25.1225 31.3398 25.245 33.3015 27.0775Z" fill="#6C6A6A" fill-opacity="0.4" shape-rendering="crispEdges"/>
<path d="M33.6525 26.7211L33.3015 27.0775L33.6524 26.7213L33.6525 26.7214L33.6529 26.7218L33.6542 26.7231L33.6591 26.7279L33.6777 26.7463L33.7475 26.8159C33.8077 26.876 33.8939 26.9628 33.999 27.0699C34.2089 27.2838 34.4947 27.5798 34.7975 27.9069C35.377 28.5331 36.0751 29.3327 36.3796 29.8845C36.3961 29.9101 36.4082 29.9327 36.4168 29.9498C36.4188 29.9539 36.4208 29.9578 36.4225 29.9614C36.6502 30.3513 36.8063 30.8243 36.5835 31.2636L36.5833 31.2641C36.4151 31.595 36.0866 31.7834 35.86 31.8836C35.6198 31.9898 35.362 32.0538 35.1919 32.0662L35.1737 32.0675H35.1555H31.3974C31.0474 32.0675 30.3998 31.9756 29.6459 31.4569L29.6431 31.455C29.0833 31.0643 28.5491 30.4436 28.0808 29.8995L28.0525 29.8666C27.681 29.4361 27.3651 29.0719 27.0682 28.8115C26.7624 28.5433 26.5636 28.465 26.4343 28.465H26.4334C26.4053 28.465 26.3775 28.4693 26.3508 28.478L26.3496 28.4784C26.1845 28.5316 25.5989 28.917 25.5989 30.6675C25.5989 31.5118 24.926 32.065 24.3297 32.065H22.6086C21.9417 32.065 18.7331 31.8384 15.9 28.8569L15.8999 28.8568C14.1944 27.0611 12.5951 24.3896 11.4287 22.1895C10.2999 20.0602 9.55179 18.3242 9.48216 18.1567L9.48208 18.1568C9.40546 17.9722 9.37287 17.7721 9.4115 17.5711C9.45053 17.368 9.55493 17.2031 9.68677 17.081C9.93634 16.8498 10.2791 16.77 10.5677 16.77H14.3633C14.7303 16.77 15.0238 16.8866 15.2442 17.0921C15.4459 17.2801 15.5494 17.5108 15.6103 17.6546M33.6525 26.7211L15.15 17.85M33.6525 26.7211L33.6428 26.7121C33.1456 26.2477 32.8062 25.9216 32.5858 25.6477C32.3705 25.3802 32.3188 25.2221 32.3157 25.0981C32.3122 24.9614 32.3645 24.763 32.5776 24.4097C32.7895 24.0582 33.1173 23.6209 33.5835 23.0112L33.5845 23.0099L34.4939 21.8124L34.4939 21.8124L34.4976 21.8074C35.5252 20.4189 36.0908 19.4709 36.3854 18.8156C36.6653 18.193 36.7488 17.7317 36.6241 17.3858C36.5068 17.0481 36.1899 16.9212 36.0024 16.8699C35.7868 16.8109 35.5299 16.7925 35.2707 16.7925H30.8112C30.6237 16.7908 30.4385 16.8343 30.2713 16.9193L30.2566 16.9268L30.2424 16.9353C30.0853 17.0287 29.9761 17.1682 29.9176 17.2499C29.8583 17.3327 29.8119 17.4138 29.7924 17.4479C29.7903 17.4516 29.7885 17.4547 29.787 17.4572L29.7671 17.4917L29.7529 17.5289C29.3429 18.6011 28.8557 19.6423 28.2951 20.6443C27.3751 22.2188 26.7694 22.9624 26.3923 23.3092C26.2068 23.4799 26.0925 23.5395 26.0396 23.5605C26.0026 23.5751 25.9891 23.5751 25.9622 23.575C25.9605 23.575 25.9588 23.575 25.9571 23.575C25.9504 23.5749 25.944 23.5733 25.9382 23.5703C25.7848 23.4655 25.6686 23.2625 25.6073 22.8905C25.5451 22.5136 25.5558 22.0694 25.5687 21.5935L25.5688 21.5935V21.58C25.5688 21.5017 25.5706 21.4247 25.5725 21.3442L25.5727 21.3345C25.5745 21.2589 25.5764 21.1787 25.5764 21.1C25.5764 20.421 25.5985 19.8446 25.621 19.3293L25.6211 19.3274C25.6392 18.8733 25.6523 18.4853 25.6477 18.1606C25.6432 17.8391 25.6214 17.5486 25.5573 17.298C25.4908 17.038 25.3734 16.7997 25.1657 16.6109C24.9643 16.4277 24.7197 16.3296 24.4688 16.2694M33.6525 26.7211L24.3498 16.755M15.6103 17.6546C15.6104 17.6548 15.6105 17.655 15.6105 17.6552L15.15 17.85M15.6103 17.6546C15.6102 17.6544 15.6101 17.6542 15.61 17.654L15.15 17.85M15.6103 17.6546C15.6259 17.6913 15.6458 17.7392 15.67 17.7974C15.8619 18.2595 16.3225 19.3685 17.0294 20.6013L17.03 20.6023C17.6868 21.754 18.2002 22.5337 18.6166 23.0206C19.0505 23.5279 19.2843 23.6035 19.3714 23.605M15.15 17.85C15.165 17.8852 15.1845 17.932 15.2083 17.9893C15.3992 18.4493 15.8716 19.5874 16.5956 20.85C17.916 23.165 18.7252 24.105 19.3741 24.105C19.4958 24.1036 19.6153 24.0727 19.7224 24.015M19.3714 23.605C19.3704 23.605 19.3693 23.605 19.3682 23.605L19.3741 24.1049V23.605C19.3732 23.605 19.3723 23.605 19.3714 23.605ZM19.3714 23.605C19.4098 23.604 19.4474 23.5944 19.4814 23.5768M19.4814 23.5768C19.4808 23.5772 19.4802 23.5775 19.4797 23.5778L19.7224 24.015M19.4814 23.5768C19.4827 23.5762 19.4839 23.5755 19.4852 23.5748L19.7224 24.015M19.4814 23.5768C19.5092 23.5596 19.61 23.4568 19.7064 23.1238C19.7958 22.8148 19.8511 22.4149 19.8809 21.9848C19.9402 21.1288 19.8932 20.2463 19.8747 19.9375L19.8738 19.9225V19.9075C19.8738 19.8571 19.8732 19.5468 19.823 19.1845C19.7698 18.7998 19.6726 18.4535 19.5349 18.266L19.5333 18.2639C19.3392 17.9968 18.9738 17.8653 18.6859 17.8115L17.9086 17.666L18.3733 17.0262C18.5503 16.7825 18.7834 16.585 19.0528 16.4503L19.0532 16.4501C19.4273 16.2634 19.9084 16.1735 20.3884 16.125C20.8787 16.0755 21.421 16.065 21.9446 16.065H22.5234H22.53L22.53 16.065C23.6896 16.0805 24.0202 16.1568 24.4688 16.2694M19.7224 24.015C20.5692 23.545 20.4113 20.5325 20.3738 19.9075L22.5234 16.565C23.6508 16.58 23.9414 16.6525 24.3498 16.755M24.4688 16.2694C24.4679 16.2691 24.4669 16.2689 24.466 16.2687L24.3498 16.755M24.4688 16.2694C24.4697 16.2696 24.4706 16.2698 24.4715 16.27L24.3498 16.755M0.5 24C0.5 11.0222 11.0433 0.5 24.0517 0.5C37.06 0.5 47.6033 11.0222 47.6033 24C47.6033 36.9778 37.06 47.5 24.0517 47.5C11.0433 47.5 0.5 36.9778 0.5 24Z" stroke="url(#paint0_linear_146_2379)" shape-rendering="crispEdges"/>
</g>
</g>
<defs>
<filter id="filter0_bd_146_2379" x="-50" y="-50" width="148.104" height="148" filterUnits="userSpaceOnUse" color-interpolation-filters="sRGB">
<feFlood flood-opacity="0" result="BackgroundImageFix"/>
<feGaussianBlur in="BackgroundImageFix" stdDeviation="25"/>
<feComposite in2="SourceAlpha" operator="in" result="effect1_backgroundBlur_146_2379"/>
<feColorMatrix in="SourceAlpha" type="matrix" values="0 0 0 0 0 0 0 0 0 0 0 0 0 0 0 0 0 0 127 0" result="hardAlpha"/>
<feOffset dy="4"/>
<feGaussianBlur stdDeviation="2"/>
<feComposite in2="hardAlpha" operator="out"/>
<feColorMatrix type="matrix" values="0 0 0 0 0 0 0 0 0 0 0 0 0 0 0 0 0 0 0.25 0"/>
<feBlend mode="normal" in2="effect1_backgroundBlur_146_2379" result="effect2_dropShadow_146_2379"/>
<feBlend mode="normal" in="SourceGraphic" in2="effect2_dropShadow_146_2379" result="shape"/>
</filter>
<linearGradient id="paint0_linear_146_2379" x1="4.3293" y1="34.56" x2="48.0741" y2="15.7719" gradientUnits="userSpaceOnUse">
<stop stop-color="#00FFFF"/>
<stop offset="0.510417" stop-color="#E9F8DD"/>
<stop offset="1" stop-color="#A128FF"/>
</linearGradient>
<clipPath id="clip0_146_2379">
<rect width="49" height="48" fill="white"/>
</clipPath>
</defs>
</svg>
