<svg width="1393" height="1321" viewBox="0 0 1393 1321" fill="none" xmlns="http://www.w3.org/2000/svg">
<g opacity="0.3">
<g style="mix-blend-mode:luminosity">
<path d="M671.1 26.5146C630.211 26.5146 597.063 38.5537 597.063 53.4047C597.063 68.2557 630.211 80.2949 671.1 80.2949C694.016 80.2949 712.593 75.1986 712.593 68.9119C712.593 62.6253 694.016 57.529 671.1 57.529C630.211 57.529 597.063 69.5681 597.063 84.4191C597.063 99.2701 630.211 111.31 671.1 111.31C694.016 111.31 712.593 106.213 712.593 99.9263C712.593 93.6396 694.016 88.5433 671.1 88.5433C630.211 88.5433 597.063 100.656 597.063 115.598C597.063 130.54 630.211 142.654 671.1 142.654C694.016 142.654 712.593 137.557 712.593 131.27C712.593 124.984 694.016 119.888 671.1 119.888C630.211 119.888 597.063 131.927 597.063 146.778C597.063 161.629 630.211 173.667 671.1 173.667C694.016 173.667 712.593 168.572 712.593 162.285C712.593 155.998 694.016 150.902 671.1 150.902C630.211 150.902 597.063 162.941 597.063 177.792C597.063 192.643 630.211 204.682 671.1 204.682C694.016 204.682 712.593 199.586 712.593 193.3C712.593 187.013 694.016 181.916 671.1 181.916C630.211 181.916 597.063 193.956 597.063 208.806C597.063 223.657 630.211 235.697 671.1 235.697C694.016 235.697 712.593 230.6 712.593 224.313C712.593 218.027 694.016 212.931 671.1 212.931C630.211 212.931 597.063 225.043 597.063 239.985C597.063 254.927 630.211 267.041 671.1 267.041" stroke="#4F4F4F" stroke-width="3" stroke-linecap="round"/>
</g>
<g style="mix-blend-mode:luminosity">
<path fill-rule="evenodd" clip-rule="evenodd" d="M24.2709 505.673C24.2224 492.614 13.3746 482.043 0 482.043C13.4045 482.043 24.2709 471.424 24.2709 458.325C24.3192 471.384 35.1672 481.955 48.5418 481.955C35.1372 481.955 24.2709 492.574 24.2709 505.673Z" fill="#4F4F4F"/>
</g>
<g style="mix-blend-mode:luminosity">
<path fill-rule="evenodd" clip-rule="evenodd" d="M705.798 865.516L681.527 841.842L657.257 865.516L632.986 841.842L608.715 865.516L632.986 889.189L608.715 912.863L632.986 936.537L657.257 912.863L681.527 936.537L705.798 912.863L681.527 889.189L705.798 865.516ZM681.527 889.189L657.257 912.863L632.986 889.189L657.257 865.516L681.527 889.189Z" fill="#333333"/>
</g>
<g style="mix-blend-mode:luminosity">
<path fill-rule="evenodd" clip-rule="evenodd" d="M1212.58 984.832L1188.3 961.158L1164.03 984.832L1139.76 961.158L1115.49 984.832L1139.76 1008.51L1115.49 1032.18L1139.76 1055.85L1164.03 1032.18L1188.3 1055.85L1212.58 1032.18L1188.3 1008.51L1212.58 984.832ZM1188.3 1008.51L1164.03 1032.18L1139.76 1008.51L1164.03 984.832L1188.3 1008.51Z" fill="#333333"/>
</g>
<g style="mix-blend-mode:luminosity">
<path fill-rule="evenodd" clip-rule="evenodd" d="M174.75 975.362C174.702 962.304 163.854 951.732 150.48 951.732C163.884 951.732 174.75 941.113 174.75 928.015C174.799 941.073 185.647 951.645 199.021 951.645C185.617 951.645 174.75 962.264 174.75 975.362Z" fill="#4F4F4F"/>
</g>
<g style="mix-blend-mode:luminosity">
<path d="M94.1699 258.518C107.135 258.518 107.135 275.563 120.1 275.563C133.066 275.563 133.066 258.518 146.031 258.518C158.996 258.518 158.996 275.563 171.931 275.563C184.897 275.563 184.897 258.518 197.831 258.518C210.797 258.518 210.797 275.563 223.731 275.563C236.697 275.563 236.697 258.518 249.661 258.518C262.627 258.518 262.627 275.563 275.592 275.563C288.557 275.563 288.557 258.518 301.522 258.518C314.488 258.518 314.488 275.563 327.453 275.563C340.418 275.563 340.418 258.518 353.383 258.518" stroke="#4F4F4F" stroke-width="3" stroke-miterlimit="10" stroke-linecap="round"/>
</g>
<g style="mix-blend-mode:luminosity">
<path d="M919.382 408.137H861.825L832.007 489.664H856.971L836.168 561.679L908.287 462.488H882.629L919.382 408.137Z" fill="#464646"/>
</g>
<g style="mix-blend-mode:luminosity">
<path d="M904.043 119.043C904.153 118.145 905.488 118.145 905.598 119.043L906.514 126.576C907.697 136.303 915.56 143.972 925.532 145.126L933.255 146.02C934.176 146.126 934.176 147.429 933.255 147.536L925.532 148.43C915.56 149.584 907.697 157.253 906.514 166.98L905.598 174.513C905.488 175.411 904.153 175.411 904.043 174.513L903.127 166.98C901.944 157.253 894.081 149.584 884.109 148.43L876.386 147.536C875.465 147.429 875.465 146.126 876.386 146.02L884.109 145.126C894.081 143.972 901.944 136.303 903.127 126.576L904.043 119.043Z" fill="#4F4F4F"/>
</g>
<g style="mix-blend-mode:luminosity">
<path d="M1089.47 0.673459C1089.58 -0.224486 1090.92 -0.224486 1091.03 0.673459L1091.94 8.2064C1093.13 17.9335 1100.99 25.6025 1110.96 26.7567L1118.68 27.6505C1119.6 27.7571 1119.6 29.0601 1118.68 29.1667L1110.96 30.0606C1100.99 31.2147 1093.13 38.8838 1091.94 48.6107L1091.03 56.1437C1090.92 57.0417 1089.58 57.0417 1089.47 56.1437L1088.56 48.6107C1087.37 38.8838 1079.51 31.2147 1069.54 30.0606L1061.81 29.1667C1060.89 29.0601 1060.89 27.7571 1061.81 27.6505L1069.54 26.7567C1079.51 25.6025 1087.37 17.9335 1088.56 8.2064L1089.47 0.673459Z" fill="#4F4F4F"/>
</g>
<g style="mix-blend-mode:luminosity">
<path d="M1362.28 1264.86C1362.39 1263.96 1363.72 1263.96 1363.83 1264.86L1364.75 1272.39C1365.93 1282.12 1373.79 1289.79 1383.77 1290.94L1391.49 1291.83C1392.41 1291.94 1392.41 1293.24 1391.49 1293.35L1383.77 1294.24C1373.79 1295.4 1365.93 1303.07 1364.75 1312.79L1363.83 1320.33C1363.72 1321.22 1362.39 1321.22 1362.28 1320.33L1361.36 1312.79C1360.18 1303.07 1352.32 1295.4 1342.34 1294.24L1334.62 1293.35C1333.7 1293.24 1333.7 1291.94 1334.62 1291.83L1342.34 1290.94C1352.32 1289.79 1360.18 1282.12 1361.36 1272.39L1362.28 1264.86Z" fill="#4F4F4F"/>
</g>
<g style="mix-blend-mode:luminosity">
<path fill-rule="evenodd" clip-rule="evenodd" d="M468.915 501.53C455.846 501.53 445.251 511.864 445.251 524.612C445.251 537.36 455.846 547.694 468.915 547.694C481.984 547.694 492.579 537.36 492.579 524.612C492.579 511.864 481.984 501.53 468.915 501.53ZM434.936 524.612C434.936 506.308 450.149 491.469 468.915 491.469C487.681 491.469 502.894 506.308 502.894 524.612C502.894 542.917 487.681 557.755 468.915 557.755C450.149 557.755 434.936 542.917 434.936 524.612Z" fill="#444444"/>
</g>
</g>
</svg>
