<svg width="1641" height="1046" viewBox="0 0 1641 1046" fill="none" xmlns="http://www.w3.org/2000/svg">
<g style="mix-blend-mode:luminosity" opacity="0.3">
<path d="M1497.67 213.52C1430.28 213.433 1375.6 160.776 1375.51 95.8674C1375.44 43.9776 1419.1 1.9311 1472.98 2.00008C1516.09 2.05528 1551.09 35.7634 1551.14 77.2847C1551.19 110.53 1523.27 137.415 1488.76 137.371C1461.14 137.335 1438.76 115.779 1438.72 89.1827C1438.7 67.9341 1456.58 50.7071 1478.64 50.7354C1496.31 50.758 1510.65 64.5628 1510.67 81.5804C1510.69 95.2035 1499.26 106.209 1485.12 106.191C1473.82 106.176 1464.64 97.3301 1464.62 86.4501" stroke="#4F4F4F" stroke-width="3" stroke-linecap="round"/>
<path d="M779.287 137.926L779.141 137.985L779.056 138.118L744.212 192.275L748.915 136.666L748.983 135.86L748.232 136.159L681.427 162.747L728.652 120.537L729.688 119.611L728.3 119.665L655.395 122.479L712.655 101.822L713.539 101.503L712.78 100.948L654.161 58.0808L718.496 68.3363L719.075 68.4285V67.8425V4.72852L743.077 68.0198L743.437 68.9687L743.97 68.1052L778.45 12.2575L766.197 74.212L765.888 75.776L767.035 74.6688L816.334 27.081L779.055 85.2088L778.235 86.4887L779.655 85.9458L837.87 63.6907L779.175 108.007L777.984 108.906H779.476H850.023L779.287 137.926Z" stroke="#908989"/>
<path d="M4.87481 105.733C4.87481 103.138 2.69222 101.033 0 101.033V67.6118C21.8372 67.6118 39.5398 84.6794 39.5398 105.733V175.187C39.5398 177.783 41.7223 179.887 44.4145 179.887C47.1068 179.887 49.2893 177.783 49.2893 175.187V105.733C49.2893 84.6794 66.9919 67.6118 88.8294 67.6118C110.666 67.6118 128.369 84.6794 128.369 105.733V175.187C128.369 177.783 130.552 179.887 133.244 179.887C135.936 179.887 138.118 177.783 138.118 175.187V105.733C138.118 84.6794 155.821 67.6118 177.658 67.6118C199.496 67.6118 217.198 84.6794 217.198 105.733V175.187C217.198 177.783 219.38 179.887 222.073 179.887C224.765 179.887 226.948 177.783 226.948 175.187V105.733C226.948 84.6794 244.65 67.6118 266.487 67.6118V101.033C263.795 101.033 261.612 103.138 261.612 105.733V175.187C261.612 196.241 243.91 213.309 222.073 213.309C200.235 213.309 182.533 196.241 182.533 175.187V105.733C182.533 103.138 180.351 101.033 177.658 101.033C174.966 101.033 172.783 103.138 172.783 105.733V175.187C172.783 196.241 155.081 213.309 133.244 213.309C111.407 213.309 93.7043 196.241 93.7043 175.187V105.733C93.7043 103.138 91.5213 101.033 88.8294 101.033C86.1365 101.033 83.9545 103.138 83.9545 105.733V175.187C83.9545 196.241 66.2517 213.309 44.4145 213.309C22.5773 213.309 4.87481 196.241 4.87481 175.187V105.733Z" fill="#818181"/>
<path fill-rule="evenodd" clip-rule="evenodd" d="M1595.92 1017.05C1595.83 993.103 1575.68 973.714 1550.84 973.714C1575.73 973.714 1595.92 954.239 1595.92 930.214C1596.01 954.165 1616.16 973.554 1641 973.554C1616.1 973.554 1595.92 993.029 1595.92 1017.05Z" fill="#4F4F4F"/>
<path fill-rule="evenodd" clip-rule="evenodd" d="M53.0971 582.858C53.0069 558.907 32.8575 539.519 8.01465 539.519C32.913 539.519 53.0971 520.043 53.0971 496.019C53.1868 519.969 73.3366 539.358 98.1795 539.358C73.2808 539.358 53.0971 558.834 53.0971 582.858Z" fill="#4F4F4F"/>
<path fill-rule="evenodd" clip-rule="evenodd" d="M1080.98 602.155C1080.88 575.544 1058.49 554.001 1030.88 554.001C1058.55 554.001 1080.98 532.361 1080.98 505.667C1081.08 532.279 1103.46 553.822 1131.07 553.822C1103.4 553.822 1080.98 575.462 1080.98 602.155Z" fill="#4F4F4F"/>
<path d="M577.055 901.268L577.07 973.563L605.809 906.777L577.097 973.574L630.185 922.464L577.118 973.594L646.473 945.941L577.129 973.62L652.193 973.634L577.129 973.648L646.473 1001.33L577.118 973.674L630.185 1024.8L577.097 973.694L605.809 1040.49L577.07 973.705L577.055 1046L577.041 973.705L548.301 1040.49L577.014 973.694L523.925 1024.8L576.993 973.674L507.637 1001.33L576.981 973.648L501.918 973.634L576.981 973.62L507.637 945.941L576.993 973.594L523.925 922.464L577.014 973.574L548.301 906.777L577.041 973.563L577.055 901.268Z" fill="#F0C3D2" stroke="#4F4F4F" stroke-width="4"/>
</g>
</svg>
