<svg width="51" height="50" viewBox="0 0 51 50" fill="none" xmlns="http://www.w3.org/2000/svg">
<g clip-path="url(#clip0_146_2381)">
<g filter="url(#filter0_bd_146_2381)">
<path d="M33.2466 36.4676L37.357 17.1317C37.5248 16.3132 37.4269 15.7273 37.0634 15.3739C36.6999 15.0205 36.2199 14.9554 35.6234 15.1786L11.4644 24.4699C10.9238 24.6745 10.5556 24.907 10.3599 25.1674C10.1641 25.4278 10.1408 25.6743 10.29 25.9068C10.4391 26.1393 10.7373 26.3207 11.1847 26.4509L17.3643 28.3761L31.7087 19.3638C32.1002 19.1034 32.3984 19.0476 32.6035 19.1964C32.734 19.2894 32.6967 19.4289 32.4916 19.615L20.8875 30.0781L20.4401 36.4397C20.8688 36.4397 21.2883 36.2351 21.6984 35.8259L24.7183 32.9241L30.9817 37.5279C32.1747 38.1975 32.9297 37.8441 33.2466 36.4676ZM50.1076 25C50.1076 28.3854 49.4458 31.622 48.1223 34.7098C46.7988 37.7976 45.0186 40.4576 42.7816 42.6897C40.5447 44.9219 37.879 46.6983 34.7845 48.019C31.6901 49.3397 28.4465 50 25.0538 50C21.6611 50 18.4175 49.3397 15.3231 48.019C12.2286 46.6983 9.56295 44.9219 7.326 42.6897C5.08905 40.4576 3.30882 37.7976 1.98529 34.7098C0.661763 31.622 0 28.3854 0 25C0 21.6146 0.661763 18.378 1.98529 15.2902C3.30882 12.2024 5.08905 9.54241 7.326 7.31027C9.56295 5.07812 12.2286 3.30171 15.3231 1.98103C18.4175 0.660342 21.6611 0 25.0538 0C28.4465 0 31.6901 0.660342 34.7845 1.98103C37.879 3.30171 40.5447 5.07812 42.7816 7.31027C45.0186 9.54241 46.7988 12.2024 48.1223 15.2902C49.4458 18.378 50.1076 21.6146 50.1076 25Z" fill="#6C6A6A" fill-opacity="0.4" shape-rendering="crispEdges"/>
<path d="M33.7339 36.5798L33.7339 36.5798L33.7357 36.5716L37.8461 17.2357L37.8468 17.2321C38.0261 16.3575 37.9612 15.5494 37.412 15.0154C37.1573 14.7678 36.8492 14.6122 36.498 14.5645C36.1544 14.5179 35.8002 14.5785 35.4481 14.7103L35.4439 14.7119L11.2874 24.0022C11.2869 24.0024 11.2865 24.0026 11.2861 24.0027C10.7172 24.2182 10.2415 24.4926 9.96017 24.867C9.82396 25.0482 9.72048 25.2607 9.6978 25.5005C9.67441 25.7479 9.74155 25.9779 9.86908 26.1767C10.1147 26.5596 10.5523 26.787 11.0404 26.9296L17.2156 28.8535L17.4354 28.922L17.6303 28.7995L30.587 20.6591L20.5527 29.7068L20.4029 29.8419L20.3887 30.043L19.9413 36.4047L19.9037 36.9397H20.4401C21.041 36.9397 21.5789 36.6503 22.0481 36.1833L24.7612 33.5762L30.6856 37.9308L30.7103 37.9489L30.737 37.9639C31.3834 38.3268 32.0573 38.4976 32.6547 38.2179C33.2444 37.9419 33.5643 37.3163 33.7339 36.5798ZM49.6076 25C49.6076 28.3182 48.9594 31.4878 47.6628 34.5128C46.3628 37.5458 44.6174 40.1515 42.4284 42.3358C40.2394 44.5201 37.628 46.2618 34.5882 47.5591C31.5564 48.8531 28.3796 49.5 25.0538 49.5C21.728 49.5 18.5512 48.8531 15.5194 47.5591C12.4797 46.2618 9.86819 44.5201 7.67917 42.3358C5.49017 40.1515 3.74486 37.5458 2.44485 34.5128C1.14822 31.4878 0.5 28.3182 0.5 25C0.5 21.6818 1.14822 18.5122 2.44485 15.4872C3.74486 12.4542 5.49017 9.8485 7.67917 7.6642C9.86819 5.47989 12.4797 3.73822 15.5194 2.4409C18.5512 1.14692 21.728 0.5 25.0538 0.5C28.3796 0.5 31.5564 1.14692 34.5882 2.4409C37.628 3.73822 40.2394 5.47989 42.4284 7.6642C44.6174 9.8485 46.3628 12.4542 47.6628 15.4872C48.9594 18.5122 49.6076 21.6818 49.6076 25Z" stroke="url(#paint0_linear_146_2381)" shape-rendering="crispEdges"/>
</g>
</g>
<defs>
<filter id="filter0_bd_146_2381" x="-50" y="-50" width="150.107" height="150" filterUnits="userSpaceOnUse" color-interpolation-filters="sRGB">
<feFlood flood-opacity="0" result="BackgroundImageFix"/>
<feGaussianBlur in="BackgroundImageFix" stdDeviation="25"/>
<feComposite in2="SourceAlpha" operator="in" result="effect1_backgroundBlur_146_2381"/>
<feColorMatrix in="SourceAlpha" type="matrix" values="0 0 0 0 0 0 0 0 0 0 0 0 0 0 0 0 0 0 127 0" result="hardAlpha"/>
<feOffset dy="4"/>
<feGaussianBlur stdDeviation="2"/>
<feComposite in2="hardAlpha" operator="out"/>
<feColorMatrix type="matrix" values="0 0 0 0 0 0 0 0 0 0 0 0 0 0 0 0 0 0 0.25 0"/>
<feBlend mode="normal" in2="effect1_backgroundBlur_146_2381" result="effect2_dropShadow_146_2381"/>
<feBlend mode="normal" in="SourceGraphic" in2="effect2_dropShadow_146_2381" result="shape"/>
</filter>
<linearGradient id="paint0_linear_146_2381" x1="4.50969" y1="36" x2="50.0771" y2="16.4291" gradientUnits="userSpaceOnUse">
<stop stop-color="#00FFFF"/>
<stop offset="0.510417" stop-color="#E9F8DD"/>
<stop offset="1" stop-color="#A128FF"/>
</linearGradient>
<clipPath id="clip0_146_2381">
<rect width="51" height="50" fill="white"/>
</clipPath>
</defs>
</svg>
