<svg width="145" height="28" viewBox="0 0 145 28" fill="none" xmlns="http://www.w3.org/2000/svg">
<path d="M15.1523 12.9883V19.8672C14.8711 20.1875 14.4414 20.5312 13.8633 20.8984C13.293 21.2656 12.5625 21.582 11.6719 21.8477C10.7812 22.1055 9.71875 22.2344 8.48438 22.2344C7.36719 22.2344 6.35156 22.0547 5.4375 21.6953C4.52344 21.3281 3.73828 20.793 3.08203 20.0898C2.42578 19.3789 1.91797 18.5117 1.55859 17.4883C1.20703 16.4648 1.03125 15.293 1.03125 13.9727V12.9648C1.03125 11.6445 1.20703 10.4727 1.55859 9.44922C1.91016 8.42578 2.40625 7.5625 3.04688 6.85938C3.6875 6.14844 4.44922 5.60937 5.33203 5.24219C6.21484 4.875 7.19141 4.69141 8.26172 4.69141C9.78516 4.69141 11.0312 4.9375 12 5.42969C12.9688 5.91406 13.7031 6.58594 14.2031 7.44531C14.7109 8.30469 15.0234 9.29297 15.1406 10.4102H11.4609C11.3828 9.83984 11.2266 9.34766 10.9922 8.93359C10.7656 8.51953 10.4414 8.20312 10.0195 7.98438C9.59766 7.75781 9.05078 7.64453 8.37891 7.64453C7.83984 7.64453 7.35156 7.75781 6.91406 7.98438C6.48438 8.20312 6.12109 8.53516 5.82422 8.98047C5.52734 9.42578 5.30078 9.98047 5.14453 10.6445C4.98828 11.3008 4.91016 12.0664 4.91016 12.9414V13.9727C4.91016 14.8477 4.98828 15.6172 5.14453 16.2812C5.30859 16.9453 5.54688 17.5 5.85938 17.9453C6.17188 18.3828 6.56641 18.7148 7.04297 18.9414C7.52734 19.168 8.08984 19.2812 8.73047 19.2812C9.23047 19.2812 9.65234 19.2422 9.99609 19.1641C10.3398 19.0781 10.6211 18.9727 10.8398 18.8477C11.0586 18.7148 11.2227 18.5938 11.332 18.4844V15.6484H8.29688V12.9883H15.1523ZM31.9922 13.0938V13.8555C31.9922 15.1523 31.8125 16.3164 31.4531 17.3477C31.1016 18.3789 30.5977 19.2578 29.9414 19.9844C29.293 20.7109 28.5195 21.2695 27.6211 21.6602C26.7305 22.043 25.7422 22.2344 24.6562 22.2344C23.5703 22.2344 22.5781 22.043 21.6797 21.6602C20.7812 21.2695 20 20.7109 19.3359 19.9844C18.6797 19.2578 18.1719 18.3789 17.8125 17.3477C17.4531 16.3164 17.2734 15.1523 17.2734 13.8555V13.0938C17.2734 11.7969 17.4531 10.6328 17.8125 9.60156C18.1719 8.5625 18.6758 7.67969 19.3242 6.95312C19.9805 6.22656 20.7578 5.67188 21.6562 5.28906C22.5547 4.89844 23.5469 4.70312 24.6328 4.70312C25.7188 4.70312 26.7109 4.89844 27.6094 5.28906C28.5078 5.67188 29.2812 6.22656 29.9297 6.95312C30.5859 7.67969 31.0938 8.5625 31.4531 9.60156C31.8125 10.6328 31.9922 11.7969 31.9922 13.0938ZM28.1367 13.8555V13.0703C28.1367 12.2031 28.0586 11.4375 27.9023 10.7734C27.7461 10.1016 27.5195 9.53906 27.2227 9.08594C26.9258 8.63281 26.5586 8.29297 26.1211 8.06641C25.6836 7.83203 25.1875 7.71484 24.6328 7.71484C24.0547 7.71484 23.5508 7.83203 23.1211 8.06641C22.6914 8.29297 22.3281 8.63281 22.0312 9.08594C21.7422 9.53906 21.5195 10.1016 21.3633 10.7734C21.2148 11.4375 21.1406 12.2031 21.1406 13.0703V13.8555C21.1406 14.7148 21.2148 15.4805 21.3633 16.1523C21.5195 16.8164 21.7461 17.3789 22.043 17.8398C22.3398 18.3008 22.7031 18.6484 23.1328 18.8828C23.5703 19.1172 24.0781 19.2344 24.6562 19.2344C25.2109 19.2344 25.7031 19.1172 26.1328 18.8828C26.5703 18.6484 26.9375 18.3008 27.2344 17.8398C27.5312 17.3789 27.7539 16.8164 27.9023 16.1523C28.0586 15.4805 28.1367 14.7148 28.1367 13.8555ZM39.7383 22H35.9883L36.0117 19.0469H39.7383C40.5898 19.0469 41.3086 18.8516 41.8945 18.4609C42.4805 18.0625 42.9258 17.4766 43.2305 16.7031C43.5352 15.9219 43.6875 14.9727 43.6875 13.8555V13.0703C43.6875 12.2266 43.6016 11.4844 43.4297 10.8438C43.2578 10.1953 43.0039 9.65234 42.668 9.21484C42.332 8.77734 41.9141 8.44922 41.4141 8.23047C40.9219 8.01172 40.3555 7.90234 39.7148 7.90234H35.918V4.9375H39.7148C40.8711 4.9375 41.9258 5.13281 42.8789 5.52344C43.8398 5.91406 44.668 6.47266 45.3633 7.19922C46.0664 7.92578 46.6094 8.78516 46.9922 9.77734C47.375 10.7695 47.5664 11.875 47.5664 13.0938V13.8555C47.5664 15.0664 47.375 16.1719 46.9922 17.1719C46.6094 18.1641 46.0664 19.0234 45.3633 19.75C44.668 20.4688 43.8438 21.0234 42.8906 21.4141C41.9375 21.8047 40.8867 22 39.7383 22ZM38.1562 4.9375V22H34.3359V4.9375H38.1562ZM55.3008 22H51.5508L51.5742 19.0469H55.3008C56.1523 19.0469 56.8711 18.8516 57.457 18.4609C58.043 18.0625 58.4883 17.4766 58.793 16.7031C59.0977 15.9219 59.25 14.9727 59.25 13.8555V13.0703C59.25 12.2266 59.1641 11.4844 58.9922 10.8438C58.8203 10.1953 58.5664 9.65234 58.2305 9.21484C57.8945 8.77734 57.4766 8.44922 56.9766 8.23047C56.4844 8.01172 55.918 7.90234 55.2773 7.90234H51.4805V4.9375H55.2773C56.4336 4.9375 57.4883 5.13281 58.4414 5.52344C59.4023 5.91406 60.2305 6.47266 60.9258 7.19922C61.6289 7.92578 62.1719 8.78516 62.5547 9.77734C62.9375 10.7695 63.1289 11.875 63.1289 13.0938V13.8555C63.1289 15.0664 62.9375 16.1719 62.5547 17.1719C62.1719 18.1641 61.6289 19.0234 60.9258 19.75C60.2305 20.4688 59.4062 21.0234 58.4531 21.4141C57.5 21.8047 56.4492 22 55.3008 22ZM53.7188 4.9375V22H49.8984V4.9375H53.7188ZM76.5938 19.0469V22H67.9805V19.0469H76.5938ZM69.2812 4.9375V22H65.4609V4.9375H69.2812ZM77.9883 4.9375L81.3281 12.5312L84.6914 4.9375H88.8164L83.2734 15.8359V22H79.3945V15.8359L73.8398 4.9375H77.9883Z" fill="white"/>
<path d="M90.2461 20.2656C90.2461 19.7344 90.4336 19.2891 90.8086 18.9297C91.1914 18.5703 91.6875 18.3906 92.2969 18.3906C92.9141 18.3906 93.4062 18.5703 93.7734 18.9297C94.1484 19.2891 94.3359 19.7344 94.3359 20.2656C94.3359 20.7891 94.1484 21.2305 93.7734 21.5898C93.4062 21.9492 92.9141 22.1289 92.2969 22.1289C91.6875 22.1289 91.1914 21.9492 90.8086 21.5898C90.4336 21.2305 90.2461 20.7891 90.2461 20.2656ZM104.086 16.0703H99.7969V13.1055H104.086C104.719 13.1055 105.227 13 105.609 12.7891C106 12.5781 106.285 12.2891 106.465 11.9219C106.652 11.5469 106.746 11.125 106.746 10.6562C106.746 10.1719 106.652 9.72266 106.465 9.30859C106.285 8.88672 106 8.54688 105.609 8.28906C105.227 8.03125 104.719 7.90234 104.086 7.90234H101.18V22H97.3594V4.9375H104.086C105.445 4.9375 106.609 5.18359 107.578 5.67578C108.555 6.16797 109.301 6.84375 109.816 7.70312C110.34 8.55469 110.602 9.53125 110.602 10.6328C110.602 11.7344 110.34 12.6914 109.816 13.5039C109.301 14.3164 108.555 14.9492 107.578 15.4023C106.609 15.8477 105.445 16.0703 104.086 16.0703ZM112.922 4.9375H119.473C120.777 4.9375 121.906 5.13281 122.859 5.52344C123.82 5.91406 124.559 6.49219 125.074 7.25781C125.59 8.02344 125.848 8.96875 125.848 10.0938C125.848 11.0312 125.695 11.8281 125.391 12.4844C125.086 13.1406 124.656 13.6836 124.102 14.1133C123.555 14.543 122.914 14.8906 122.18 15.1562L120.938 15.8359H115.359L115.336 12.8711H119.484C120.055 12.8711 120.527 12.7695 120.902 12.5664C121.277 12.3633 121.559 12.0781 121.746 11.7109C121.941 11.3359 122.039 10.8984 122.039 10.3984C122.039 9.88281 121.941 9.4375 121.746 9.0625C121.551 8.6875 121.262 8.40234 120.879 8.20703C120.504 8.00391 120.035 7.90234 119.473 7.90234H116.742V22H112.922V4.9375ZM122.367 22L118.535 14.418L122.566 14.4062L126.457 21.8242V22H122.367ZM142.664 13.0938V13.8555C142.664 15.1523 142.484 16.3164 142.125 17.3477C141.773 18.3789 141.27 19.2578 140.613 19.9844C139.965 20.7109 139.191 21.2695 138.293 21.6602C137.402 22.043 136.414 22.2344 135.328 22.2344C134.242 22.2344 133.25 22.043 132.352 21.6602C131.453 21.2695 130.672 20.7109 130.008 19.9844C129.352 19.2578 128.844 18.3789 128.484 17.3477C128.125 16.3164 127.945 15.1523 127.945 13.8555V13.0938C127.945 11.7969 128.125 10.6328 128.484 9.60156C128.844 8.5625 129.348 7.67969 129.996 6.95312C130.652 6.22656 131.43 5.67188 132.328 5.28906C133.227 4.89844 134.219 4.70312 135.305 4.70312C136.391 4.70312 137.383 4.89844 138.281 5.28906C139.18 5.67188 139.953 6.22656 140.602 6.95312C141.258 7.67969 141.766 8.5625 142.125 9.60156C142.484 10.6328 142.664 11.7969 142.664 13.0938ZM138.809 13.8555V13.0703C138.809 12.2031 138.73 11.4375 138.574 10.7734C138.418 10.1016 138.191 9.53906 137.895 9.08594C137.598 8.63281 137.23 8.29297 136.793 8.06641C136.355 7.83203 135.859 7.71484 135.305 7.71484C134.727 7.71484 134.223 7.83203 133.793 8.06641C133.363 8.29297 133 8.63281 132.703 9.08594C132.414 9.53906 132.191 10.1016 132.035 10.7734C131.887 11.4375 131.812 12.2031 131.812 13.0703V13.8555C131.812 14.7148 131.887 15.4805 132.035 16.1523C132.191 16.8164 132.418 17.3789 132.715 17.8398C133.012 18.3008 133.375 18.6484 133.805 18.8828C134.242 19.1172 134.75 19.2344 135.328 19.2344C135.883 19.2344 136.375 19.1172 136.805 18.8828C137.242 18.6484 137.609 18.3008 137.906 17.8398C138.203 17.3789 138.426 16.8164 138.574 16.1523C138.73 15.4805 138.809 14.7148 138.809 13.8555Z" fill="#FEB820"/>
</svg>
