<svg width="293" height="293" viewBox="0 0 293 293" fill="none" xmlns="http://www.w3.org/2000/svg">
<path d="M157.201 74.3009L157.32 75.112L157.673 74.3722L189.298 8.16392L178.124 80.6793L177.999 81.4896L178.555 80.8868L228.292 26.9399L196.238 92.9407L195.88 93.6783L196.589 93.266L260.019 56.3739L209.932 109.996L209.372 110.595L210.171 110.41L281.66 93.8503L217.99 130.329L217.279 130.736L218.097 130.795L291.29 136.039L219.695 152.133L218.895 152.312L219.66 152.609L288.056 179.192L214.898 173.472L214.08 173.408L214.723 173.917L272.244 219.475L204.023 192.448L203.26 192.146L203.724 192.822L245.259 253.308L188.036 207.376L187.396 206.862L187.64 207.645L209.498 277.686L168.359 216.929L167.899 216.25L167.902 217.07L168.141 290.441L146.739 220.259L146.5 219.475L146.261 220.259L124.859 290.441L125.099 217.07L125.101 216.25L124.642 216.929L83.5018 277.686L105.36 207.645L105.604 206.862L104.965 207.376L47.7416 253.308L89.2765 192.822L89.7407 192.146L88.9783 192.448L20.7565 219.475L78.2776 173.917L78.9204 173.408L78.1029 173.472L4.94411 179.192L73.3406 152.609L74.105 152.312L73.3049 152.133L1.70989 136.039L74.9043 130.795L75.7223 130.736L75.0107 130.329L11.3406 93.8503L82.8295 110.41L83.6283 110.595L83.0686 109.996L32.9811 56.3739L96.4117 93.266L97.1205 93.6783L96.7623 92.9407L64.7081 26.9399L114.445 80.8868L115.001 81.4896L114.876 80.6793L103.703 8.16391L135.327 74.3722L135.68 75.112L135.8 74.3009L146.5 1.71428L157.201 74.3009Z" fill="#FF00C7" stroke="white" stroke-width="0.5"/>
</svg>
