<svg width="301" height="301" viewBox="0 0 301 301" fill="none" xmlns="http://www.w3.org/2000/svg">
<g filter="url(#filter0_d_170_256)">
<path d="M150.5 2.63765e-05L161.448 74.2644L193.803 6.52589L182.371 80.7174L233.258 25.5235L200.463 93.0499L265.36 55.305L214.115 110.166L287.256 93.224L222.114 130.546L297 135.911L223.75 152.376L293.728 179.574L218.878 173.721L277.729 220.332L207.93 192.68L250.425 254.565L191.879 207.57L214.242 279.23L172.152 217.069L172.397 292.136L150.5 220.332L128.604 292.136L128.849 217.069L86.7579 279.23L109.121 207.57L50.5753 254.565L93.0704 192.68L23.2715 220.332L82.1224 173.721L7.27249 179.574L77.25 152.376L3.99996 135.911L78.8864 130.546L13.7445 93.224L86.8859 110.166L35.6406 55.305L100.537 93.0499L67.7423 25.5235L118.629 80.7174L107.197 6.52589L139.553 74.2644L150.5 2.63765e-05Z" fill="#42FF00"/>
<path d="M161.201 74.3009L161.32 75.112L161.673 74.3722L193.298 8.16392L182.124 80.6793L181.999 81.4896L182.555 80.8868L232.292 26.9399L200.238 92.9407L199.88 93.6783L200.589 93.266L264.019 56.3739L213.932 109.996L213.372 110.595L214.171 110.41L285.66 93.8503L221.99 130.329L221.279 130.736L222.097 130.795L295.29 136.039L223.695 152.133L222.895 152.312L223.66 152.609L292.056 179.192L218.898 173.472L218.08 173.408L218.723 173.917L276.244 219.475L208.023 192.448L207.26 192.146L207.724 192.822L249.259 253.308L192.036 207.376L191.396 206.862L191.64 207.645L213.498 277.686L172.359 216.929L171.899 216.25L171.902 217.07L172.141 290.441L150.739 220.259L150.5 219.475L150.261 220.259L128.859 290.441L129.099 217.07L129.101 216.25L128.642 216.929L87.5018 277.686L109.36 207.645L109.604 206.862L108.965 207.376L51.7416 253.308L93.2765 192.822L93.7407 192.146L92.9783 192.448L24.7565 219.475L82.2776 173.917L82.9204 173.408L82.1029 173.472L8.94411 179.192L77.3406 152.609L78.105 152.312L77.3049 152.133L5.70989 136.039L78.9043 130.795L79.7223 130.736L79.0107 130.329L15.3406 93.8503L86.8295 110.41L87.6283 110.595L87.0686 109.996L36.9811 56.3739L100.412 93.266L101.12 93.6783L100.762 92.9407L68.7081 26.9399L118.445 80.8868L119.001 81.4896L118.876 80.6793L107.703 8.16391L139.327 74.3722L139.68 75.112L139.8 74.3009L150.5 1.71428L161.201 74.3009Z" stroke="white" stroke-width="0.5"/>
</g>
<defs>
<filter id="filter0_d_170_256" x="0" y="0" width="301" height="300.136" filterUnits="userSpaceOnUse" color-interpolation-filters="sRGB">
<feFlood flood-opacity="0" result="BackgroundImageFix"/>
<feColorMatrix in="SourceAlpha" type="matrix" values="0 0 0 0 0 0 0 0 0 0 0 0 0 0 0 0 0 0 127 0" result="hardAlpha"/>
<feOffset dy="4"/>
<feGaussianBlur stdDeviation="2"/>
<feComposite in2="hardAlpha" operator="out"/>
<feColorMatrix type="matrix" values="0 0 0 0 0 0 0 0 0 0 0 0 0 0 0 0 0 0 0.25 0"/>
<feBlend mode="normal" in2="BackgroundImageFix" result="effect1_dropShadow_170_256"/>
<feBlend mode="normal" in="SourceGraphic" in2="effect1_dropShadow_170_256" result="shape"/>
</filter>
</defs>
</svg>
