<svg width="2786" height="2077" viewBox="0 0 2786 2077" fill="none" xmlns="http://www.w3.org/2000/svg">
<g style="mix-blend-mode:lighten">
<g style="mix-blend-mode:screen" opacity="0.5">
<path fill-rule="evenodd" clip-rule="evenodd" d="M54.4402 19.6937H2714.85L2731.55 1H71.1408L54.4402 19.6937Z" stroke="white" stroke-width="1.3" stroke-linejoin="round"/>
<path fill-rule="evenodd" clip-rule="evenodd" d="M2768.3 79.5135V2016.18L2785 1997.49V60.8198L2768.3 79.5135Z" stroke="white" stroke-width="1.3" stroke-linejoin="round"/>
<path fill-rule="evenodd" clip-rule="evenodd" d="M2714.85 2076H54.4402L71.1408 2057.31H2731.55L2714.85 2076Z" stroke="white" stroke-width="1.3" stroke-linejoin="round"/>
<path fill-rule="evenodd" clip-rule="evenodd" d="M1 2016.18V79.5135L17.7007 60.8198V1997.49L1 2016.18Z" stroke="white" stroke-width="1.3" stroke-linejoin="round"/>
<path d="M1 79.5135V79.5135ZM1 79.5135L17.7007 60.8198M17.7007 60.8198V60.8198Z" stroke="white" stroke-width="1.3" stroke-linejoin="round"/>
<path fill-rule="evenodd" clip-rule="evenodd" d="M1 79.5142C1 58.5752 1 48.1058 4.64052 40.1082L21.3412 21.4146C17.7007 29.4121 17.7007 39.8815 17.7007 60.8205L1 79.5142Z" stroke="white" stroke-width="1.3" stroke-linejoin="round"/>
<path fill-rule="evenodd" clip-rule="evenodd" d="M4.64185 40.1073C6.17895 36.7306 8.15553 33.6569 10.4906 30.9769L27.1913 12.2832C24.8562 14.9632 22.8796 18.0369 21.3425 21.4136L4.64185 40.1073Z" stroke="white" stroke-width="1.3" stroke-linejoin="round"/>
<path fill-rule="evenodd" clip-rule="evenodd" d="M10.4894 30.9769C13.019 28.0736 15.9694 25.6323 19.2375 23.7684L35.9382 5.07471C32.6701 6.93863 29.7197 9.37987 27.19 12.2832L10.4894 30.9769Z" stroke="white" stroke-width="1.3" stroke-linejoin="round"/>
<path fill-rule="evenodd" clip-rule="evenodd" d="M19.2358 23.7687C26.3807 19.6937 35.7341 19.6937 54.4405 19.6937L71.1411 1C52.4347 1 43.0814 1 35.9365 5.07498L19.2358 23.7687Z" stroke="white" stroke-width="1.3" stroke-linejoin="round"/>
<path fill-rule="evenodd" clip-rule="evenodd" d="M2714.86 19.6937C2733.56 19.6937 2742.91 19.6937 2750.06 23.7687L2766.76 5.07498C2759.61 1 2750.26 1 2731.56 1L2714.86 19.6937Z" stroke="white" stroke-width="1.3" stroke-linejoin="round"/>
<path fill-rule="evenodd" clip-rule="evenodd" d="M2750.06 23.7684C2756.34 27.3529 2761.45 33.0724 2764.66 40.1073L2781.36 21.4136C2778.15 14.3787 2773.04 8.65917 2766.76 5.07471L2750.06 23.7684Z" stroke="white" stroke-width="1.3" stroke-linejoin="round"/>
<path fill-rule="evenodd" clip-rule="evenodd" d="M2764.66 40.1082C2768.3 48.1058 2768.3 58.5754 2768.3 79.5142L2785 60.8205C2785 39.8817 2785 29.4121 2781.36 21.4146L2764.66 40.1082Z" stroke="white" stroke-width="1.3" stroke-linejoin="round"/>
<path fill-rule="evenodd" clip-rule="evenodd" d="M2768.3 2016.18C2768.3 2037.12 2768.3 2047.59 2764.66 2055.59L2781.36 2036.89C2785 2028.89 2785 2018.42 2785 1997.49L2768.3 2016.18Z" stroke="white" stroke-width="1.3" stroke-linejoin="round"/>
<path fill-rule="evenodd" clip-rule="evenodd" d="M2764.66 2055.59C2763.12 2058.96 2761.14 2062.03 2758.81 2064.71L2775.51 2046.02C2777.84 2043.34 2779.82 2040.27 2781.36 2036.89L2764.66 2055.59Z" stroke="white" stroke-width="1.3" stroke-linejoin="round"/>
<path fill-rule="evenodd" clip-rule="evenodd" d="M2758.81 2064.71C2756.28 2067.62 2753.33 2070.06 2750.06 2071.92L2766.76 2053.23C2770.03 2051.36 2772.98 2048.92 2775.51 2046.02L2758.81 2064.71Z" stroke="white" stroke-width="1.3" stroke-linejoin="round"/>
<path fill-rule="evenodd" clip-rule="evenodd" d="M2750.06 2071.92C2742.91 2076 2733.56 2076 2714.86 2076L2731.56 2057.31C2750.26 2057.31 2759.61 2057.31 2766.76 2053.23L2750.06 2071.92Z" stroke="white" stroke-width="1.3" stroke-linejoin="round"/>
<path fill-rule="evenodd" clip-rule="evenodd" d="M54.4405 2076C35.7341 2076 26.3807 2076 19.2358 2071.92L35.9365 2053.23C43.0814 2057.31 52.4347 2057.31 71.1411 2057.31L54.4405 2076Z" stroke="white" stroke-width="1.3" stroke-linejoin="round"/>
<path fill-rule="evenodd" clip-rule="evenodd" d="M19.2388 2071.92C12.9539 2068.34 7.84415 2062.62 4.64185 2055.59L21.3425 2036.89C24.5448 2043.92 29.6545 2049.64 35.9394 2053.23L19.2388 2071.92Z" stroke="white" stroke-width="1.3" stroke-linejoin="round"/>
<path fill-rule="evenodd" clip-rule="evenodd" d="M4.64052 2055.59C1 2047.59 1 2037.12 1 2016.18L17.7007 1997.49C17.7007 2018.42 17.7007 2028.89 21.3412 2036.89L4.64052 2055.59Z" stroke="white" stroke-width="1.3" stroke-linejoin="round"/>
</g>
<g style="mix-blend-mode:screen" opacity="0.5">
<path d="M1 79.4054C1 58.5045 1 48.0541 4.64052 40.0711C7.84282 33.049 12.9526 27.3399 19.2374 23.7619C26.3823 19.6943 35.7357 19.6943 54.4421 19.6943H2714.86C2733.56 19.6943 2742.91 19.6943 2750.06 23.7619C2756.34 27.3399 2761.45 33.049 2764.66 40.0711C2768.3 48.0541 2768.3 58.5047 2768.3 79.4054V2012.55C2768.3 2033.45 2768.3 2043.9 2764.66 2051.89C2761.45 2058.9 2756.34 2064.61 2750.06 2068.19C2742.91 2072.26 2733.56 2072.26 2714.86 2072.26H54.4421C35.7357 2072.26 26.3823 2072.26 19.2374 2068.19C12.9526 2064.61 7.84282 2058.9 4.64052 2051.89C1 2043.9 1 2033.45 1 2012.55V79.4054Z" stroke="white"/>
</g>
</g>
</svg>
