<svg width="51" height="56" viewBox="0 0 51 56" fill="none" xmlns="http://www.w3.org/2000/svg">
<g filter="url(#filter0_bd_146_2382)">
<path d="M34.1392 36.4676L38.2496 17.1317C38.4174 16.3132 38.3195 15.7273 37.956 15.3739C37.5925 15.0205 37.1125 14.9554 36.516 15.1786L12.3569 24.4699C11.8163 24.6745 11.4482 24.907 11.2524 25.1674C11.0567 25.4278 11.0334 25.6743 11.1825 25.9068C11.3317 26.1393 11.6299 26.3207 12.0773 26.4509L18.2569 28.3761L32.6013 19.3638C32.9928 19.1034 33.291 19.0476 33.4961 19.1964C33.6266 19.2894 33.5893 19.4289 33.3842 19.615L21.7801 30.0781L21.3327 36.4397C21.7614 36.4397 22.1809 36.2351 22.591 35.8259L25.6108 32.9241L31.8743 37.5279C33.0673 38.1975 33.8223 37.8441 34.1392 36.4676ZM51.0002 25C51.0002 28.3854 50.3384 31.622 49.0149 34.7098C47.6914 37.7976 45.9111 40.4576 43.6742 42.6897C41.4372 44.9219 38.7715 46.6983 35.6771 48.019C32.5827 49.3397 29.3391 50 25.9464 50C22.5537 50 19.3101 49.3397 16.2157 48.019C13.1212 46.6983 10.4555 44.9219 8.21858 42.6897C5.98163 40.4576 4.20139 37.7976 2.87787 34.7098C1.55434 31.622 0.892578 28.3854 0.892578 25C0.892578 21.6146 1.55434 18.378 2.87787 15.2902C4.20139 12.2024 5.98163 9.54241 8.21858 7.31027C10.4555 5.07812 13.1212 3.30171 16.2157 1.98103C19.3101 0.660342 22.5537 0 25.9464 0C29.3391 0 32.5827 0.660342 35.6771 1.98103C38.7715 3.30171 41.4372 5.07812 43.6742 7.31027C45.9111 9.54241 47.6914 12.2024 49.0149 15.2902C50.3384 18.378 51.0002 21.6146 51.0002 25Z" fill="#6C6A6A" fill-opacity="0.4" shape-rendering="crispEdges"/>
<path d="M34.6265 36.5798L34.6265 36.5798L34.6283 36.5716L38.7387 17.2357L38.7394 17.2321C38.9187 16.3575 38.8538 15.5494 38.3045 15.0154L37.956 15.3739L38.3045 15.0154C38.0499 14.7678 37.7417 14.6122 37.3906 14.5645C37.047 14.5179 36.6928 14.5785 36.3407 14.7103L36.3365 14.7119L12.1799 24.0022C12.1795 24.0024 12.1791 24.0026 12.1787 24.0027C11.6097 24.2182 11.1341 24.4926 10.8527 24.867C10.7165 25.0482 10.6131 25.2607 10.5904 25.5005C10.567 25.7479 10.6341 25.9779 10.7617 26.1767C11.0072 26.5596 11.4449 26.7869 11.9329 26.9296L18.1082 28.8535L18.3279 28.922L18.5229 28.7995L31.4796 20.6591L21.4452 29.7068L21.2954 29.8419L21.2813 30.043L20.8339 36.4047L20.7963 36.9397H21.3327C21.9336 36.9397 22.4716 36.6502 22.9408 36.1832L25.6538 33.5762L31.5782 37.9308L31.6028 37.9489L31.6296 37.9639C32.276 38.3268 32.9499 38.4976 33.5473 38.2179C34.137 37.9419 34.4569 37.3163 34.6265 36.5798ZM50.5002 25C50.5002 28.3182 49.852 31.4878 48.5553 34.5128C47.2553 37.5458 45.51 40.1515 43.321 42.3358C41.132 44.5201 38.5205 46.2618 35.4808 47.5591C32.449 48.8531 29.2722 49.5 25.9464 49.5C22.6206 49.5 19.4438 48.8531 16.4119 47.5591C13.3722 46.2618 10.7608 44.5201 8.57175 42.3358C6.38275 40.1515 4.63743 37.5458 3.33743 34.5128C2.0408 31.4878 1.39258 28.3182 1.39258 25C1.39258 21.6818 2.0408 18.5122 3.33743 15.4872C4.63743 12.4542 6.38275 9.8485 8.57175 7.6642C10.7608 5.47989 13.3722 3.73822 16.4119 2.4409C19.4438 1.14692 22.6206 0.5 25.9464 0.5C29.2722 0.5 32.449 1.14692 35.4808 2.4409C38.5205 3.73822 41.132 5.47989 43.321 7.6642C45.51 9.8485 47.2553 12.4542 48.5553 15.4872C49.852 18.5122 50.5002 21.6818 50.5002 25Z" stroke="url(#paint0_linear_146_2382)" shape-rendering="crispEdges"/>
</g>
<defs>
<filter id="filter0_bd_146_2382" x="-49.1074" y="-50" width="150.107" height="150" filterUnits="userSpaceOnUse" color-interpolation-filters="sRGB">
<feFlood flood-opacity="0" result="BackgroundImageFix"/>
<feGaussianBlur in="BackgroundImageFix" stdDeviation="25"/>
<feComposite in2="SourceAlpha" operator="in" result="effect1_backgroundBlur_146_2382"/>
<feColorMatrix in="SourceAlpha" type="matrix" values="0 0 0 0 0 0 0 0 0 0 0 0 0 0 0 0 0 0 127 0" result="hardAlpha"/>
<feOffset dy="4"/>
<feGaussianBlur stdDeviation="2"/>
<feComposite in2="hardAlpha" operator="out"/>
<feColorMatrix type="matrix" values="0 0 0 0 0 0 0 0 0 0 0 0 0 0 0 0 0 0 0.25 0"/>
<feBlend mode="normal" in2="effect1_backgroundBlur_146_2382" result="effect2_dropShadow_146_2382"/>
<feBlend mode="normal" in="SourceGraphic" in2="effect2_dropShadow_146_2382" result="shape"/>
</filter>
<linearGradient id="paint0_linear_146_2382" x1="5.40226" y1="36" x2="50.9697" y2="16.4291" gradientUnits="userSpaceOnUse">
<stop stop-color="#00FFFF"/>
<stop offset="0.510417" stop-color="#E9F8DD"/>
<stop offset="1" stop-color="#A128FF"/>
</linearGradient>
</defs>
</svg>
