<svg width="152" height="54" viewBox="0 0 152 54" fill="none" xmlns="http://www.w3.org/2000/svg">
<g opacity="0.7">
<path fill-rule="evenodd" clip-rule="evenodd" d="M1 11.6445H39.962L49.962 1.64453H11L1 11.6445Z" stroke="url(#paint0_linear_185_4236)" stroke-width="0.3" stroke-linejoin="round"/>
<path fill-rule="evenodd" clip-rule="evenodd" d="M39.9619 11.6445V20.7065L49.9619 10.7065V1.64453L39.9619 11.6445Z" stroke="url(#paint1_linear_185_4236)" stroke-width="0.3" stroke-linejoin="round"/>
<path fill-rule="evenodd" clip-rule="evenodd" d="M39.9625 20.7061H16.2725L26.2725 10.7061H49.9625L39.9625 20.7061Z" stroke="url(#paint2_linear_185_4236)" stroke-width="0.3" stroke-linejoin="round"/>
<path fill-rule="evenodd" clip-rule="evenodd" d="M16.2725 20.7061V24.1101L26.2725 14.1101V10.7061L16.2725 20.7061Z" stroke="url(#paint3_linear_185_4236)" stroke-width="0.3" stroke-linejoin="round"/>
<path fill-rule="evenodd" clip-rule="evenodd" d="M16.2725 24.1104H39.5485L49.5485 14.1104H26.2725L16.2725 24.1104Z" stroke="url(#paint4_linear_185_4236)" stroke-width="0.3" stroke-linejoin="round"/>
<path fill-rule="evenodd" clip-rule="evenodd" d="M39.5479 24.1104V33.1264L49.5479 23.1264V14.1104L39.5479 24.1104Z" stroke="url(#paint5_linear_185_4236)" stroke-width="0.3" stroke-linejoin="round"/>
<path fill-rule="evenodd" clip-rule="evenodd" d="M39.5485 33.126H16.2725L26.2725 23.126H49.5485L39.5485 33.126Z" stroke="url(#paint6_linear_185_4236)" stroke-width="0.3" stroke-linejoin="round"/>
<path fill-rule="evenodd" clip-rule="evenodd" d="M16.2725 33.126V45.868L26.2725 35.868V23.126L16.2725 33.126Z" stroke="url(#paint7_linear_185_4236)" stroke-width="0.3" stroke-linejoin="round"/>
<path fill-rule="evenodd" clip-rule="evenodd" d="M16.272 45.8682H1L11 35.8682H26.272L16.272 45.8682Z" stroke="url(#paint8_linear_185_4236)" stroke-width="0.3" stroke-linejoin="round"/>
<path fill-rule="evenodd" clip-rule="evenodd" d="M1 45.8685V11.6445L11 1.64453V35.8685L1 45.8685Z" stroke="url(#paint9_linear_185_4236)" stroke-width="0.3" stroke-linejoin="round"/>
<path d="M1 11.6445V11.6445ZM1 11.6445L11 1.64453M11 1.64453V1.64453Z" stroke="url(#paint10_linear_185_4236)" stroke-width="0.3" stroke-linejoin="round"/>
<path fill-rule="evenodd" clip-rule="evenodd" d="M67.585 31.7L62.709 21.166L72.709 11.166L77.585 21.7L67.585 31.7Z" stroke="url(#paint11_linear_185_4236)" stroke-width="0.3" stroke-linejoin="round"/>
<path fill-rule="evenodd" clip-rule="evenodd" d="M62.7088 21.166L57.9248 31.7L67.9248 21.7L72.7088 11.166L62.7088 21.166Z" stroke="url(#paint12_linear_185_4236)" stroke-width="0.3" stroke-linejoin="round"/>
<path fill-rule="evenodd" clip-rule="evenodd" d="M57.9248 31.7002H67.5848L77.5848 21.7002H67.9248L57.9248 31.7002Z" stroke="url(#paint13_linear_185_4236)" stroke-width="0.3" stroke-linejoin="round"/>
<path d="M67.585 31.7002V31.7002ZM67.585 31.7002L77.585 21.7002M77.585 21.7002V21.7002Z" stroke="url(#paint14_linear_185_4236)" stroke-width="0.3" stroke-linejoin="round"/>
<path fill-rule="evenodd" clip-rule="evenodd" d="M74.1171 45.8679L71.9551 41.1299L81.9551 31.1299L84.1171 35.8679L74.1171 45.8679Z" stroke="url(#paint15_linear_185_4236)" stroke-width="0.3" stroke-linejoin="round"/>
<path fill-rule="evenodd" clip-rule="evenodd" d="M71.9554 41.1299H53.6934L63.6934 31.1299H81.9554L71.9554 41.1299Z" stroke="url(#paint16_linear_185_4236)" stroke-width="0.3" stroke-linejoin="round"/>
<path fill-rule="evenodd" clip-rule="evenodd" d="M53.6931 41.1299L51.5771 45.8679L61.5771 35.8679L63.6931 31.1299L53.6931 41.1299Z" stroke="url(#paint17_linear_185_4236)" stroke-width="0.3" stroke-linejoin="round"/>
<path fill-rule="evenodd" clip-rule="evenodd" d="M51.5766 45.8682H35.8906L45.8906 35.8682H61.5766L51.5766 45.8682Z" stroke="url(#paint18_linear_185_4236)" stroke-width="0.3" stroke-linejoin="round"/>
<path fill-rule="evenodd" clip-rule="evenodd" d="M35.8906 45.8685L52.3586 11.6445L62.3586 1.64453L45.8906 35.8685L35.8906 45.8685Z" stroke="url(#paint19_linear_185_4236)" stroke-width="0.3" stroke-linejoin="round"/>
<path fill-rule="evenodd" clip-rule="evenodd" d="M52.3594 11.6445H73.7954L83.7954 1.64453H62.3594L52.3594 11.6445Z" stroke="url(#paint20_linear_185_4236)" stroke-width="0.3" stroke-linejoin="round"/>
<path fill-rule="evenodd" clip-rule="evenodd" d="M73.7949 11.6445L91.3209 45.8685L101.321 35.8685L83.7949 1.64453L73.7949 11.6445Z" stroke="url(#paint21_linear_185_4236)" stroke-width="0.3" stroke-linejoin="round"/>
<path fill-rule="evenodd" clip-rule="evenodd" d="M91.3212 45.8682H74.1172L84.1172 35.8682H101.321L91.3212 45.8682Z" stroke="url(#paint22_linear_185_4236)" stroke-width="0.3" stroke-linejoin="round"/>
<path d="M74.1172 45.8682V45.8682ZM74.1172 45.8682L84.1172 35.8682M84.1172 35.8682V35.8682Z" stroke="url(#paint23_linear_185_4236)" stroke-width="0.3" stroke-linejoin="round"/>
<path fill-rule="evenodd" clip-rule="evenodd" d="M109.017 52.998V46.374L119.017 36.374V42.998L109.017 52.998Z" stroke="url(#paint24_linear_185_4236)" stroke-width="0.3" stroke-linejoin="round"/>
<path fill-rule="evenodd" clip-rule="evenodd" d="M87.8574 29.3546V27.9746L97.8574 17.9746V19.3546L87.8574 29.3546Z" stroke="url(#paint25_linear_185_4236)" stroke-width="0.3" stroke-linejoin="round"/>
<path fill-rule="evenodd" clip-rule="evenodd" d="M113.709 11H115.917L125.917 1H123.709L113.709 11Z" stroke="url(#paint26_linear_185_4236)" stroke-width="0.3" stroke-linejoin="round"/>
<path fill-rule="evenodd" clip-rule="evenodd" d="M141.815 27.9746V29.3546L151.815 19.3546V17.9746L141.815 27.9746Z" stroke="url(#paint27_linear_185_4236)" stroke-width="0.3" stroke-linejoin="round"/>
<path fill-rule="evenodd" clip-rule="evenodd" d="M122.679 46.1904L129.165 52.9984L139.165 42.9984L132.679 36.1904L122.679 46.1904Z" stroke="url(#paint28_linear_185_4236)" stroke-width="0.3" stroke-linejoin="round"/>
<path fill-rule="evenodd" clip-rule="evenodd" d="M129.165 52.998H109.017L119.017 42.998H139.165L129.165 52.998Z" stroke="url(#paint29_linear_185_4236)" stroke-width="0.3" stroke-linejoin="round"/>
<path d="M109.017 52.998V52.998ZM109.017 52.998L119.017 42.998M119.017 42.998V42.998Z" stroke="url(#paint30_linear_185_4236)" stroke-width="0.3" stroke-linejoin="round"/>
<path fill-rule="evenodd" clip-rule="evenodd" d="M125.761 28.894V28.25L135.761 18.25V18.894L125.761 28.894Z" stroke="url(#paint31_linear_185_4236)" stroke-width="0.3" stroke-linejoin="round"/>
<path fill-rule="evenodd" clip-rule="evenodd" d="M103.865 28.25V28.802L113.865 18.802V18.25L103.865 28.25Z" stroke="url(#paint32_linear_185_4236)" stroke-width="0.3" stroke-linejoin="round"/>
<path d="M125.761 28.8945V28.8945ZM125.761 28.8945L135.761 18.8945M135.761 18.8945V18.8945Z" stroke="url(#paint33_linear_185_4236)" stroke-width="0.3" stroke-linejoin="round"/>
<path fill-rule="evenodd" clip-rule="evenodd" d="M109.017 46.3745C90.7554 45.0865 87.8574 35.5185 87.8574 29.3545L97.8574 19.3545C97.8574 25.5185 100.755 35.0865 119.017 36.3745L109.017 46.3745Z" stroke="url(#paint34_linear_185_4236)" stroke-width="0.3" stroke-linejoin="round"/>
<path fill-rule="evenodd" clip-rule="evenodd" d="M87.8574 27.974C87.8574 24.6841 88.5993 20.6417 91.8738 17.3271L101.874 7.32715C98.5993 10.6417 97.8574 14.6841 97.8574 17.974L87.8574 27.974Z" stroke="url(#paint35_linear_185_4236)" stroke-width="0.3" stroke-linejoin="round"/>
<path fill-rule="evenodd" clip-rule="evenodd" d="M91.874 17.3272C95.4213 13.7364 101.941 11 113.709 11L123.709 1C111.941 1 105.421 3.73645 101.874 7.32717L91.874 17.3272Z" stroke="url(#paint36_linear_185_4236)" stroke-width="0.3" stroke-linejoin="round"/>
<path fill-rule="evenodd" clip-rule="evenodd" d="M115.917 11C138.549 11 141.815 21.12 141.815 27.974L151.815 17.974C151.815 11.12 148.549 1 125.917 1L115.917 11Z" stroke="url(#paint37_linear_185_4236)" stroke-width="0.3" stroke-linejoin="round"/>
<path fill-rule="evenodd" clip-rule="evenodd" d="M141.815 29.3545C141.815 32.4641 141.118 36.3946 138.121 39.7102L148.121 29.7102C151.118 26.3946 151.815 22.4641 151.815 19.3545L141.815 29.3545Z" stroke="url(#paint38_linear_185_4236)" stroke-width="0.3" stroke-linejoin="round"/>
<path fill-rule="evenodd" clip-rule="evenodd" d="M138.121 39.71C135.354 42.7705 130.628 45.307 122.679 46.1902L132.679 36.1902C140.628 35.307 145.354 32.7705 148.121 29.71L138.121 39.71Z" stroke="url(#paint39_linear_185_4236)" stroke-width="0.3" stroke-linejoin="round"/>
<path fill-rule="evenodd" clip-rule="evenodd" d="M125.761 28.2501C125.761 24.9381 123.415 21.1201 114.813 21.1201L124.813 11.1201C133.415 11.1201 135.761 14.9381 135.761 18.2501L125.761 28.2501Z" stroke="url(#paint40_linear_185_4236)" stroke-width="0.3" stroke-linejoin="round"/>
<path fill-rule="evenodd" clip-rule="evenodd" d="M114.813 21.1201C110.22 21.1201 107.443 22.1525 105.836 23.6093L115.836 13.6093C117.443 12.1525 120.22 11.1201 124.813 11.1201L114.813 21.1201Z" stroke="url(#paint41_linear_185_4236)" stroke-width="0.3" stroke-linejoin="round"/>
<path fill-rule="evenodd" clip-rule="evenodd" d="M105.837 23.6094C104.353 24.9541 103.865 26.6604 103.865 28.2502L113.865 18.2502C113.865 16.6604 114.353 14.9541 115.837 13.6094L105.837 23.6094Z" stroke="url(#paint42_linear_185_4236)" stroke-width="0.3" stroke-linejoin="round"/>
<path fill-rule="evenodd" clip-rule="evenodd" d="M103.865 28.8018C103.865 32.1598 106.211 36.2998 114.813 36.2998L124.813 26.2998C116.211 26.2998 113.865 22.1598 113.865 18.8018L103.865 28.8018Z" stroke="url(#paint43_linear_185_4236)" stroke-width="0.3" stroke-linejoin="round"/>
<path fill-rule="evenodd" clip-rule="evenodd" d="M114.813 36.3002C119.287 36.3002 122.068 35.2056 123.708 33.6826L133.708 23.6826C132.068 25.2056 129.287 26.3002 124.813 26.3002L114.813 36.3002Z" stroke="url(#paint44_linear_185_4236)" stroke-width="0.3" stroke-linejoin="round"/>
<path fill-rule="evenodd" clip-rule="evenodd" d="M123.707 33.683C125.22 32.2772 125.761 30.5064 125.761 28.8945L135.761 18.8945C135.761 20.5064 135.22 22.2772 133.707 23.683L123.707 33.683Z" stroke="url(#paint45_linear_185_4236)" stroke-width="0.3" stroke-linejoin="round"/>
</g>
<path d="M1 11.644H39.962V20.706H16.272V24.11H39.548V33.126H16.272V45.868H1V11.644ZM67.585 31.7L62.709 21.166L57.925 31.7H67.585ZM74.117 45.868L71.955 41.13H53.693L51.577 45.868H35.891L52.359 11.644H73.795L91.321 45.868H74.117ZM109.017 52.998V46.374C90.7553 45.086 87.8573 35.518 87.8573 29.354V27.974C87.8573 21.12 91.0773 11 113.709 11H115.917C138.549 11 141.815 21.12 141.815 27.974V29.354C141.815 35.334 139.239 44.35 122.679 46.19L129.165 52.998H109.017ZM125.761 28.894V28.25C125.761 24.938 123.415 21.12 114.813 21.12C105.981 21.12 103.865 24.938 103.865 28.25V28.802C103.865 32.16 106.211 36.3 114.813 36.3C123.415 36.3 125.761 32.252 125.761 28.894Z" fill="white" stroke="url(#paint46_linear_185_4236)" stroke-width="0.3"/>
<defs>
<linearGradient id="paint0_linear_185_4236" x1="5.40658" y1="8.84453" x2="15.1674" y2="-11.6372" gradientUnits="userSpaceOnUse">
<stop stop-color="#00FFFF"/>
<stop offset="0.510417" stop-color="#E9F8DD"/>
<stop offset="1" stop-color="#A128FF"/>
</linearGradient>
<linearGradient id="paint1_linear_185_4236" x1="40.8619" y1="15.3692" x2="51.1151" y2="13.064" gradientUnits="userSpaceOnUse">
<stop stop-color="#00FFFF"/>
<stop offset="0.510417" stop-color="#E9F8DD"/>
<stop offset="1" stop-color="#A128FF"/>
</linearGradient>
<linearGradient id="paint2_linear_185_4236" x1="19.3046" y1="17.9061" x2="31.0686" y2="0.9204" gradientUnits="userSpaceOnUse">
<stop stop-color="#00FFFF"/>
<stop offset="0.510417" stop-color="#E9F8DD"/>
<stop offset="1" stop-color="#A128FF"/>
</linearGradient>
<linearGradient id="paint3_linear_185_4236" x1="17.1725" y1="20.3569" x2="26.9449" y2="17.2324" gradientUnits="userSpaceOnUse">
<stop stop-color="#00FFFF"/>
<stop offset="0.510417" stop-color="#E9F8DD"/>
<stop offset="1" stop-color="#A128FF"/>
</linearGradient>
<linearGradient id="paint4_linear_185_4236" x1="19.2673" y1="21.3104" x2="31.0819" y2="4.46145" gradientUnits="userSpaceOnUse">
<stop stop-color="#00FFFF"/>
<stop offset="0.510417" stop-color="#E9F8DD"/>
<stop offset="1" stop-color="#A128FF"/>
</linearGradient>
<linearGradient id="paint5_linear_185_4236" x1="40.4479" y1="27.8019" x2="50.6986" y2="25.4916" gradientUnits="userSpaceOnUse">
<stop stop-color="#00FFFF"/>
<stop offset="0.510417" stop-color="#E9F8DD"/>
<stop offset="1" stop-color="#A128FF"/>
</linearGradient>
<linearGradient id="paint6_linear_185_4236" x1="19.2673" y1="30.326" x2="31.0819" y2="13.4771" gradientUnits="userSpaceOnUse">
<stop stop-color="#00FFFF"/>
<stop offset="0.510417" stop-color="#E9F8DD"/>
<stop offset="1" stop-color="#A128FF"/>
</linearGradient>
<linearGradient id="paint7_linear_185_4236" x1="17.1725" y1="39.5002" x2="27.5745" y2="37.54" gradientUnits="userSpaceOnUse">
<stop stop-color="#00FFFF"/>
<stop offset="0.510417" stop-color="#E9F8DD"/>
<stop offset="1" stop-color="#A128FF"/>
</linearGradient>
<linearGradient id="paint8_linear_185_4236" x1="3.27448" y1="43.0682" x2="15.8012" y2="29.5006" gradientUnits="userSpaceOnUse">
<stop stop-color="#00FFFF"/>
<stop offset="0.510417" stop-color="#E9F8DD"/>
<stop offset="1" stop-color="#A128FF"/>
</linearGradient>
<linearGradient id="paint9_linear_185_4236" x1="1.9" y1="33.4858" x2="12.5712" y2="32.4517" gradientUnits="userSpaceOnUse">
<stop stop-color="#00FFFF"/>
<stop offset="0.510417" stop-color="#E9F8DD"/>
<stop offset="1" stop-color="#A128FF"/>
</linearGradient>
<linearGradient id="paint10_linear_185_4236" x1="1.9" y1="8.84453" x2="11" y2="4.94453" gradientUnits="userSpaceOnUse">
<stop stop-color="#00FFFF"/>
<stop offset="0.510417" stop-color="#E9F8DD"/>
<stop offset="1" stop-color="#A128FF"/>
</linearGradient>
<linearGradient id="paint11_linear_185_4236" x1="64.0478" y1="25.9505" x2="78.6626" y2="21.4129" gradientUnits="userSpaceOnUse">
<stop stop-color="#00FFFF"/>
<stop offset="0.510417" stop-color="#E9F8DD"/>
<stop offset="1" stop-color="#A128FF"/>
</linearGradient>
<linearGradient id="paint12_linear_185_4236" x1="59.2554" y1="25.9505" x2="73.7955" y2="21.464" gradientUnits="userSpaceOnUse">
<stop stop-color="#00FFFF"/>
<stop offset="0.510417" stop-color="#E9F8DD"/>
<stop offset="1" stop-color="#A128FF"/>
</linearGradient>
<linearGradient id="paint13_linear_185_4236" x1="59.6942" y1="28.9002" x2="72.0787" y2="18.4653" gradientUnits="userSpaceOnUse">
<stop stop-color="#00FFFF"/>
<stop offset="0.510417" stop-color="#E9F8DD"/>
<stop offset="1" stop-color="#A128FF"/>
</linearGradient>
<linearGradient id="paint14_linear_185_4236" x1="68.485" y1="28.9002" x2="77.585" y2="25.0002" gradientUnits="userSpaceOnUse">
<stop stop-color="#00FFFF"/>
<stop offset="0.510417" stop-color="#E9F8DD"/>
<stop offset="1" stop-color="#A128FF"/>
</linearGradient>
<linearGradient id="paint15_linear_185_4236" x1="73.0497" y1="41.7412" x2="84.6935" y2="37.6233" gradientUnits="userSpaceOnUse">
<stop stop-color="#00FFFF"/>
<stop offset="0.510417" stop-color="#E9F8DD"/>
<stop offset="1" stop-color="#A128FF"/>
</linearGradient>
<linearGradient id="paint16_linear_185_4236" x1="56.2369" y1="38.3299" x2="68.5763" y2="23.3841" gradientUnits="userSpaceOnUse">
<stop stop-color="#00FFFF"/>
<stop offset="0.510417" stop-color="#E9F8DD"/>
<stop offset="1" stop-color="#A128FF"/>
</linearGradient>
<linearGradient id="paint17_linear_185_4236" x1="52.6676" y1="41.7412" x2="64.2771" y2="37.6509" gradientUnits="userSpaceOnUse">
<stop stop-color="#00FFFF"/>
<stop offset="0.510417" stop-color="#E9F8DD"/>
<stop offset="1" stop-color="#A128FF"/>
</linearGradient>
<linearGradient id="paint18_linear_185_4236" x1="38.2024" y1="43.0682" x2="50.7113" y2="29.298" gradientUnits="userSpaceOnUse">
<stop stop-color="#00FFFF"/>
<stop offset="0.510417" stop-color="#E9F8DD"/>
<stop offset="1" stop-color="#A128FF"/>
</linearGradient>
<linearGradient id="paint19_linear_185_4236" x1="38.2727" y1="33.4858" x2="65.0226" y2="26.6245" gradientUnits="userSpaceOnUse">
<stop stop-color="#00FFFF"/>
<stop offset="0.510417" stop-color="#E9F8DD"/>
<stop offset="1" stop-color="#A128FF"/>
</linearGradient>
<linearGradient id="paint20_linear_185_4236" x1="55.1886" y1="8.84453" x2="67.217" y2="-7.36076" gradientUnits="userSpaceOnUse">
<stop stop-color="#00FFFF"/>
<stop offset="0.510417" stop-color="#E9F8DD"/>
<stop offset="1" stop-color="#A128FF"/>
</linearGradient>
<linearGradient id="paint21_linear_185_4236" x1="76.2723" y1="33.4858" x2="103.952" y2="26.1022" gradientUnits="userSpaceOnUse">
<stop stop-color="#00FFFF"/>
<stop offset="0.510417" stop-color="#E9F8DD"/>
<stop offset="1" stop-color="#A128FF"/>
</linearGradient>
<linearGradient id="paint22_linear_185_4236" x1="76.5655" y1="43.0682" x2="88.9856" y2="28.5878" gradientUnits="userSpaceOnUse">
<stop stop-color="#00FFFF"/>
<stop offset="0.510417" stop-color="#E9F8DD"/>
<stop offset="1" stop-color="#A128FF"/>
</linearGradient>
<linearGradient id="paint23_linear_185_4236" x1="75.0172" y1="43.0682" x2="84.1172" y2="39.1682" gradientUnits="userSpaceOnUse">
<stop stop-color="#00FFFF"/>
<stop offset="0.510417" stop-color="#E9F8DD"/>
<stop offset="1" stop-color="#A128FF"/>
</linearGradient>
<linearGradient id="paint24_linear_185_4236" x1="109.917" y1="48.3433" x2="120.017" y2="45.7395" gradientUnits="userSpaceOnUse">
<stop stop-color="#00FFFF"/>
<stop offset="0.510417" stop-color="#E9F8DD"/>
<stop offset="1" stop-color="#A128FF"/>
</linearGradient>
<linearGradient id="paint25_linear_185_4236" x1="88.7574" y1="26.1682" x2="98.1909" y2="22.6156" gradientUnits="userSpaceOnUse">
<stop stop-color="#00FFFF"/>
<stop offset="0.510417" stop-color="#E9F8DD"/>
<stop offset="1" stop-color="#A128FF"/>
</linearGradient>
<linearGradient id="paint26_linear_185_4236" x1="114.808" y1="8.2" x2="125.131" y2="2.79861" gradientUnits="userSpaceOnUse">
<stop stop-color="#00FFFF"/>
<stop offset="0.510417" stop-color="#E9F8DD"/>
<stop offset="1" stop-color="#A128FF"/>
</linearGradient>
<linearGradient id="paint27_linear_185_4236" x1="142.715" y1="26.1682" x2="152.149" y2="22.6156" gradientUnits="userSpaceOnUse">
<stop stop-color="#00FFFF"/>
<stop offset="0.510417" stop-color="#E9F8DD"/>
<stop offset="1" stop-color="#A128FF"/>
</linearGradient>
<linearGradient id="paint28_linear_185_4236" x1="124.162" y1="48.2922" x2="139.254" y2="41.9485" gradientUnits="userSpaceOnUse">
<stop stop-color="#00FFFF"/>
<stop offset="0.510417" stop-color="#E9F8DD"/>
<stop offset="1" stop-color="#A128FF"/>
</linearGradient>
<linearGradient id="paint29_linear_185_4236" x1="111.73" y1="50.198" x2="123.895" y2="34.48" gradientUnits="userSpaceOnUse">
<stop stop-color="#00FFFF"/>
<stop offset="0.510417" stop-color="#E9F8DD"/>
<stop offset="1" stop-color="#A128FF"/>
</linearGradient>
<linearGradient id="paint30_linear_185_4236" x1="109.917" y1="50.198" x2="119.017" y2="46.298" gradientUnits="userSpaceOnUse">
<stop stop-color="#00FFFF"/>
<stop offset="0.510417" stop-color="#E9F8DD"/>
<stop offset="1" stop-color="#A128FF"/>
</linearGradient>
<linearGradient id="paint31_linear_185_4236" x1="126.661" y1="25.9137" x2="135.93" y2="22.1817" gradientUnits="userSpaceOnUse">
<stop stop-color="#00FFFF"/>
<stop offset="0.510417" stop-color="#E9F8DD"/>
<stop offset="1" stop-color="#A128FF"/>
</linearGradient>
<linearGradient id="paint32_linear_185_4236" x1="104.765" y1="25.8474" x2="114.011" y2="22.0921" gradientUnits="userSpaceOnUse">
<stop stop-color="#00FFFF"/>
<stop offset="0.510417" stop-color="#E9F8DD"/>
<stop offset="1" stop-color="#A128FF"/>
</linearGradient>
<linearGradient id="paint33_linear_185_4236" x1="126.661" y1="26.0945" x2="135.761" y2="22.1945" gradientUnits="userSpaceOnUse">
<stop stop-color="#00FFFF"/>
<stop offset="0.510417" stop-color="#E9F8DD"/>
<stop offset="1" stop-color="#A128FF"/>
</linearGradient>
<linearGradient id="paint34_linear_185_4236" x1="90.6618" y1="38.8089" x2="117.636" y2="25.4772" gradientUnits="userSpaceOnUse">
<stop stop-color="#00FFFF"/>
<stop offset="0.510417" stop-color="#E9F8DD"/>
<stop offset="1" stop-color="#A128FF"/>
</linearGradient>
<linearGradient id="paint35_linear_185_4236" x1="89.1189" y1="22.1929" x2="103.038" y2="18.1432" gradientUnits="userSpaceOnUse">
<stop stop-color="#00FFFF"/>
<stop offset="0.510417" stop-color="#E9F8DD"/>
<stop offset="1" stop-color="#A128FF"/>
</linearGradient>
<linearGradient id="paint36_linear_185_4236" x1="94.7392" y1="12.7556" x2="114.931" y2="-4.11735" gradientUnits="userSpaceOnUse">
<stop stop-color="#00FFFF"/>
<stop offset="0.510417" stop-color="#E9F8DD"/>
<stop offset="1" stop-color="#A128FF"/>
</linearGradient>
<linearGradient id="paint37_linear_185_4236" x1="119.148" y1="20.4213" x2="148.324" y2="3.78047" gradientUnits="userSpaceOnUse">
<stop stop-color="#00FFFF"/>
<stop offset="0.510417" stop-color="#E9F8DD"/>
<stop offset="1" stop-color="#A128FF"/>
</linearGradient>
<linearGradient id="paint38_linear_185_4236" x1="139.354" y1="34.0106" x2="152.972" y2="30.0844" gradientUnits="userSpaceOnUse">
<stop stop-color="#00FFFF"/>
<stop offset="0.510417" stop-color="#E9F8DD"/>
<stop offset="1" stop-color="#A128FF"/>
</linearGradient>
<linearGradient id="paint39_linear_185_4236" x1="124.969" y1="41.5758" x2="144.029" y2="28.9645" gradientUnits="userSpaceOnUse">
<stop stop-color="#00FFFF"/>
<stop offset="0.510417" stop-color="#E9F8DD"/>
<stop offset="1" stop-color="#A128FF"/>
</linearGradient>
<linearGradient id="paint40_linear_185_4236" x1="116.699" y1="23.4537" x2="134.401" y2="14.1763" gradientUnits="userSpaceOnUse">
<stop stop-color="#00FFFF"/>
<stop offset="0.510417" stop-color="#E9F8DD"/>
<stop offset="1" stop-color="#A128FF"/>
</linearGradient>
<linearGradient id="paint41_linear_185_4236" x1="107.544" y1="20.1123" x2="121.898" y2="10.7652" gradientUnits="userSpaceOnUse">
<stop stop-color="#00FFFF"/>
<stop offset="0.510417" stop-color="#E9F8DD"/>
<stop offset="1" stop-color="#A128FF"/>
</linearGradient>
<linearGradient id="paint42_linear_185_4236" x1="104.943" y1="24.1508" x2="116.427" y2="20.1263" gradientUnits="userSpaceOnUse">
<stop stop-color="#00FFFF"/>
<stop offset="0.510417" stop-color="#E9F8DD"/>
<stop offset="1" stop-color="#A128FF"/>
</linearGradient>
<linearGradient id="paint43_linear_185_4236" x1="105.751" y1="31.4003" x2="123.613" y2="22.2359" gradientUnits="userSpaceOnUse">
<stop stop-color="#00FFFF"/>
<stop offset="0.510417" stop-color="#E9F8DD"/>
<stop offset="1" stop-color="#A128FF"/>
</linearGradient>
<linearGradient id="paint44_linear_185_4236" x1="116.514" y1="32.7672" x2="130.929" y2="23.5164" gradientUnits="userSpaceOnUse">
<stop stop-color="#00FFFF"/>
<stop offset="0.510417" stop-color="#E9F8DD"/>
<stop offset="1" stop-color="#A128FF"/>
</linearGradient>
<linearGradient id="paint45_linear_185_4236" x1="124.792" y1="29.5422" x2="136.364" y2="25.4999" gradientUnits="userSpaceOnUse">
<stop stop-color="#00FFFF"/>
<stop offset="0.510417" stop-color="#E9F8DD"/>
<stop offset="1" stop-color="#A128FF"/>
</linearGradient>
<linearGradient id="paint46_linear_185_4236" x1="13.6734" y1="41.2386" x2="63.163" y2="-29.8758" gradientUnits="userSpaceOnUse">
<stop stop-color="#00FFFF"/>
<stop offset="0.510417" stop-color="#E9F8DD"/>
<stop offset="1" stop-color="#A128FF"/>
</linearGradient>
</defs>
</svg>
