<svg width="308" height="308" viewBox="0 0 308 308" fill="none" xmlns="http://www.w3.org/2000/svg">
<g filter="url(#filter0_bd_146_2380)">
<path d="M154 0C71.1562 0 4 67.012 4 149.678C4 232.344 71.1562 299.356 154 299.356C236.844 299.356 304 232.344 304 149.678C304 67.012 236.844 0 154 0ZM211.688 168.871C211.688 168.871 224.953 181.937 228.219 188.002C228.313 188.126 228.359 188.251 228.391 188.313C229.719 190.543 230.031 192.274 229.375 193.568C228.281 195.719 224.531 196.78 223.25 196.873H199.813C198.188 196.873 194.781 196.452 190.656 193.615C187.484 191.401 184.359 187.768 181.313 184.229C176.766 178.959 172.828 174.406 168.859 174.406C168.355 174.405 167.854 174.484 167.375 174.64C164.375 175.606 160.531 179.879 160.531 191.26C160.531 194.815 157.719 196.858 155.734 196.858H145C141.344 196.858 122.297 195.579 105.422 177.82C84.7656 156.07 66.1719 112.446 66.0156 112.04C64.8437 109.218 67.2656 107.706 69.9063 107.706H93.5781C96.7344 107.706 97.7656 109.623 98.4844 111.323C99.3281 113.303 102.422 121.177 107.5 130.033C115.734 144.47 120.781 150.333 124.828 150.333C125.587 150.324 126.332 150.131 127 149.771C132.281 146.84 131.297 128.053 131.062 124.155C131.062 123.422 131.047 115.751 128.344 112.071C126.406 109.405 123.109 108.392 121.109 108.018C121.919 106.903 122.985 105.999 124.219 105.383C127.844 103.574 134.375 103.309 140.859 103.309H144.469C151.5 103.402 153.313 103.855 155.859 104.494C161.016 105.726 161.125 109.047 160.672 120.413C160.531 123.64 160.391 127.289 160.391 131.592C160.391 132.527 160.344 133.525 160.344 134.585C160.188 140.37 160 146.934 164.094 149.631C164.628 149.965 165.245 150.143 165.875 150.146C167.297 150.146 171.578 150.146 183.172 130.298C186.747 123.909 189.855 117.271 192.469 110.434C192.703 110.029 193.391 108.782 194.203 108.298C194.803 107.993 195.468 107.838 196.141 107.846H223.969C227 107.846 229.078 108.298 229.469 109.468C230.156 111.323 229.344 116.983 216.641 134.149L210.969 141.617C199.453 156.678 199.453 157.442 211.688 168.871Z" fill="#6C6A6A" fill-opacity="0.4" shape-rendering="crispEdges"/>
<path d="M212.029 168.506L212.038 168.515L211.688 168.871C212.038 168.515 212.038 168.515 212.039 168.515L212.039 168.515L212.041 168.517L212.048 168.525L212.077 168.553L212.189 168.664C212.288 168.762 212.432 168.906 212.617 169.091C212.988 169.461 213.52 169.996 214.168 170.657C215.465 171.979 217.229 173.805 219.095 175.822C222.799 179.824 226.964 184.636 228.643 187.735C228.745 187.88 228.815 188.038 228.833 188.08C230.173 190.336 230.597 192.265 229.821 193.794L229.821 193.794C229.193 195.029 227.848 195.891 226.585 196.45C225.308 197.014 223.994 197.32 223.286 197.372L223.268 197.373H223.25H199.813C198.098 197.373 194.59 196.928 190.373 194.027L190.37 194.025C187.152 191.779 184 188.117 180.981 184.61L180.934 184.555L212.029 168.506ZM212.029 168.506C208.963 165.642 206.698 163.477 205.184 161.596C203.675 159.721 202.963 158.188 202.922 156.594C202.88 154.986 203.518 153.222 204.931 150.881C206.342 148.541 208.482 145.692 211.366 141.921L211.367 141.92L217.039 134.451L217.043 134.446C223.403 125.851 226.806 120.111 228.532 116.272C230.242 112.468 230.354 110.428 229.94 109.301C229.659 108.471 228.822 108.004 227.841 107.736C226.83 107.459 225.501 107.346 223.969 107.346H196.143C195.391 107.338 194.647 107.511 193.976 107.853L193.962 107.86L193.948 107.868C193.449 108.165 193.025 108.668 192.713 109.104C192.425 109.506 192.2 109.899 192.075 110.117C192.06 110.141 192.047 110.164 192.036 110.184L192.016 110.218L192.002 110.256C189.397 117.068 186.301 123.683 182.738 130.049C176.951 139.957 173.012 144.867 170.37 147.297C169.053 148.509 168.073 149.089 167.363 149.371C166.669 149.646 166.209 149.646 165.879 149.646H165.877L212.029 168.506ZM168.859 174.906H168.859C168.407 174.905 167.959 174.976 167.53 175.115L167.528 175.116C164.844 175.981 161.031 179.953 161.031 191.26C161.031 195.089 157.997 197.358 155.734 197.358H145C141.263 197.358 122.062 196.057 105.059 178.165L105.059 178.165C94.6818 167.238 84.8433 150.843 77.5895 137.16C70.4155 123.628 65.7436 112.698 65.5539 112.232C65.2312 111.455 65.1413 110.731 65.2668 110.078C65.3927 109.423 65.7284 108.877 66.1915 108.448C67.1036 107.603 68.509 107.206 69.9062 107.206H93.5781C95.2701 107.206 96.4426 107.725 97.2862 108.511C98.1112 109.28 98.5821 110.27 98.9446 111.128M168.859 174.906L155.976 104.008C155.977 104.008 155.978 104.008 155.979 104.008C153.391 103.359 151.539 102.903 144.475 102.809H144.469H140.859C137.613 102.809 134.339 102.875 131.417 103.17C128.505 103.464 125.891 103.989 123.996 104.935L123.995 104.935C122.69 105.588 121.562 106.544 120.705 107.724L120.24 108.364L121.017 108.509C122.985 108.877 126.118 109.86 127.939 112.365L127.941 112.367C129.213 114.1 129.881 116.829 130.222 119.287C130.559 121.722 130.562 123.797 130.562 124.155V124.17L130.563 124.185C130.68 126.13 130.983 131.774 130.601 137.291C130.409 140.051 130.048 142.756 129.415 144.941C128.774 147.156 127.892 148.703 126.76 149.333M168.859 174.906C170.655 174.906 172.513 175.94 174.539 177.717M168.859 174.906L174.539 177.717M98.9446 111.128C98.9447 111.128 98.9448 111.128 98.9449 111.128L98.4844 111.323L98.9444 111.127C98.9445 111.127 98.9445 111.127 98.9446 111.128ZM98.9446 111.128C99.0387 111.348 99.1604 111.641 99.3092 112C100.501 114.871 103.436 121.939 107.934 129.784L107.934 129.785C112.048 136.998 115.35 142.039 118.114 145.272C120.899 148.528 123.042 149.831 124.825 149.833M124.825 149.833C124.824 149.833 124.823 149.833 124.822 149.833L124.828 150.332V149.833C124.827 149.833 124.826 149.833 124.825 149.833ZM124.825 149.833C125.501 149.824 126.165 149.653 126.76 149.333M126.76 149.333C126.759 149.333 126.758 149.334 126.757 149.334L127 149.771L126.763 149.331C126.762 149.332 126.761 149.332 126.76 149.333ZM174.539 177.717C176.557 179.486 178.653 181.912 180.934 184.555L174.539 177.717ZM4.5 149.678C4.5 67.2892 71.4314 0.5 154 0.5C236.569 0.5 303.5 67.2892 303.5 149.678C303.5 232.067 236.569 298.856 154 298.856C71.4314 298.856 4.5 232.067 4.5 149.678Z" stroke="url(#paint0_linear_146_2380)" shape-rendering="crispEdges"/>
</g>
<defs>
<filter id="filter0_bd_146_2380" x="-46" y="-50" width="400" height="399.356" filterUnits="userSpaceOnUse" color-interpolation-filters="sRGB">
<feFlood flood-opacity="0" result="BackgroundImageFix"/>
<feGaussianBlur in="BackgroundImageFix" stdDeviation="25"/>
<feComposite in2="SourceAlpha" operator="in" result="effect1_backgroundBlur_146_2380"/>
<feColorMatrix in="SourceAlpha" type="matrix" values="0 0 0 0 0 0 0 0 0 0 0 0 0 0 0 0 0 0 127 0" result="hardAlpha"/>
<feOffset dy="4"/>
<feGaussianBlur stdDeviation="2"/>
<feComposite in2="hardAlpha" operator="out"/>
<feColorMatrix type="matrix" values="0 0 0 0 0 0 0 0 0 0 0 0 0 0 0 0 0 0 0.25 0"/>
<feBlend mode="normal" in2="effect1_backgroundBlur_146_2380" result="effect2_dropShadow_146_2380"/>
<feBlend mode="normal" in="SourceGraphic" in2="effect2_dropShadow_146_2380" result="shape"/>
</filter>
<linearGradient id="paint0_linear_146_2380" x1="31" y1="215.536" x2="303.818" y2="98.3627" gradientUnits="userSpaceOnUse">
<stop stop-color="#00FFFF"/>
<stop offset="0.510417" stop-color="#E9F8DD"/>
<stop offset="1" stop-color="#A128FF"/>
</linearGradient>
</defs>
</svg>
