<svg width="900" height="903" viewBox="0 0 900 903" fill="none" xmlns="http://www.w3.org/2000/svg">
<path d="M450.001 0L483.628 229.521L583.013 20.1688L547.898 249.465L704.205 78.8829L603.47 287.58L802.811 170.925L645.404 340.479L870.07 288.118L669.976 403.463L900 420.045L675 470.934L889.948 554.989L660.035 536.901L840.804 680.958L626.408 595.497L756.936 786.757L577.103 641.516L645.795 862.988L516.507 670.873L517.259 902.873L450.001 680.958L382.743 902.873L383.495 670.873L254.205 862.988L322.898 641.516L143.064 786.757L273.595 595.497L59.196 680.958L239.966 536.901L10.0521 554.989L225 470.934L0 420.045L230.027 403.463L29.9321 288.118L254.598 340.479L97.1896 170.925L296.531 287.58L195.796 78.8829L352.104 249.465L316.989 20.1688L416.373 229.521L450.001 0Z" fill="black"/>
</svg>
