<svg width="900" height="903" viewBox="0 0 900 903" fill="none" xmlns="http://www.w3.org/2000/svg">
<path d="M483.381 229.557L483.5 230.373L483.854 229.628L582.508 21.8158L547.651 249.427L547.526 250.24L548.082 249.634L703.241 80.3049L603.245 287.471L602.888 288.21L603.596 287.795L801.476 171.997L645.221 340.309L644.665 340.908L645.461 340.723L868.482 288.744L669.852 403.247L669.145 403.654L669.958 403.713L898.3 420.173L674.945 470.69L674.15 470.87L674.909 471.167L888.286 554.608L660.055 536.652L659.241 536.588L659.879 537.097L839.326 680.1L626.5 595.265L625.74 594.962L626.201 595.638L755.773 785.497L577.26 641.322L576.621 640.806L576.864 641.59L645.052 861.435L516.714 670.734L516.254 670.05L516.257 670.874L517.003 901.168L450.24 680.886L450.001 680.096L449.762 680.886L382.998 901.168L383.745 670.874L383.747 670.05L383.287 670.734L254.948 861.436L323.137 641.59L323.381 640.806L322.741 641.322L144.227 785.496L273.802 595.638L274.263 594.962L273.503 595.265L60.6743 680.1L240.122 537.097L240.761 536.588L239.947 536.652L11.7142 554.608L225.091 471.167L225.85 470.87L225.055 470.69L1.69975 420.173L230.045 403.713L230.858 403.654L230.151 403.247L31.52 288.744L254.542 340.723L255.338 340.908L254.782 340.309L98.5253 171.997L296.405 287.795L297.113 288.21L296.757 287.471L196.76 80.305L351.919 249.634L352.475 250.24L352.351 249.427L317.494 21.8158L416.148 229.628L416.501 230.373L416.621 229.557L450.001 1.72458L483.381 229.557Z" fill="#1A1E25" stroke="white" stroke-width="0.5"/>
</svg>
